<svg version="1.1" id="sixteen_svg" xmlns="http://www.w3.org/2000/svg" xmlns:xlink="http://www.w3.org/1999/xlink" x="0px" y="0px"
	viewBox="-28.73 -11.935 632.06 262.57" width="100%" height="100%" xml:space="preserve">
	<!-- viewBox="0 0 574.6 238.7" -->
	<filter id="blur" x="-50%" width="200%" y="-50%" height="200%">
      <feGaussianBlur in="SourceGraphic" stdDeviation="4" />
    </filter>
	<g fill="none" stroke-width="9.359" stroke-miterlimit="10">
		<g stroke="#272727">
			<polyline id="sixteen_svg_10" points="55.7,236.5 55.7,6.3 41.4,6.3 3.7,56.6 "/>
			<polyline id="sixteen_svg_11" points="18.5,64.3 39.3,36.5 39.3,236.5 "/>
			<path id="sixteen_svg_20" d="M101.7,136.2c0-28.2,20.2-33.9,29.5-33.9 c9.3,0,29.5,5.7,29.5,33.9v48.1c0,28.2-20.2,33.9-29.5,33.9c-9.3,0-29.5-5.7-29.5-33.9V136.2z"/>
			<path id="sixteen_svg_21" d="M160.8,73.3v-19c0-28.2-20.2-33.9-29.5-33.9 c-9.3,0-29.5,5.7-29.5,33.9v45c0,0,10.1-12.9,29.5-12.9c13.6,0,43,8.3,43,49.3v48.9c0,41-29.5,49.3-43,49.3c-13.6,0-43-8.3-43-49.3 V54c0-41,29.5-49.3,43-49.3c13.6,0,43,8.3,43,49.3v19.4"/>
			<path id="sixteen_svg_40" d="M279.4,233.9h0.7c15.4-1.1,42.8-10.9,42.8-49.2 V54c0-41-31.5-49.3-46-49.3c-14.5,0-46,8.3-46,49.3v130.7c0,38.3,27.4,48,42.8,49.2h0.7"/>
			<path id="sixteen_svg_41" d="M279.4,217.9h0.7c10.7-1.1,28.4-8.2,28.4-33.7 V54.4c0-28.2-21.6-33.9-31.6-33.9c-9.9,0-31.6,5.7-31.6,33.9v129.9c0,25.5,17.7,32.6,28.4,33.7h0.7"/>
			<path id="sixteen_svg_50" d="M402.9,233.9h0.7c15.4-1.1,42.8-10.9,42.8-49.2 V54c0-41-31.5-49.3-46-49.3c-14.5,0-46,8.3-46,49.3v130.7c0,38.3,27.4,48,42.8,49.2h0.7"/>
			<path id="sixteen_svg_51" d="M402.9,217.9h0.7c10.7-1.1,28.4-8.2,28.4-33.7 V54.4c0-28.2-21.6-33.9-31.6-33.9c-9.9,0-31.6,5.7-31.6,33.9v129.9c0,25.5,17.7,32.6,28.4,33.7h0.7"/>
			<path id="sixteen_svg_60" d="M526.5,233.9h0.7c15.4-1.1,42.8-10.9,42.8-49.2 V54c0-41-31.5-49.3-46-49.3c-14.5,0-46,8.3-46,49.3v130.7c0,38.3,27.4,48,42.8,49.2h0.7"/>
			<path id="sixteen_svg_61" d="M526.5,217.9h0.7c10.7-1.1,28.4-8.2,28.4-33.7 V54.4c0-28.2-21.6-33.9-31.6-33.9c-9.9,0-31.6,5.7-31.6,33.9v129.9c0,25.5,17.7,32.6,28.4,33.7h0.7"/>
		</g>
		<g stroke="white" filter="url(#blur)">
			<polyline id="sixteen_svg_10b" points="55.7,236.5 55.7,6.3 41.4,6.3 3.7,56.6 "/>
			<polyline id="sixteen_svg_11b" points="18.5,64.3 39.3,36.5 39.3,236.5 "/>
			<path id="sixteen_svg_20b" d="M101.7,136.2c0-28.2,20.2-33.9,29.5-33.9 c9.3,0,29.5,5.7,29.5,33.9v48.1c0,28.2-20.2,33.9-29.5,33.9c-9.3,0-29.5-5.7-29.5-33.9V136.2z"/>
			<path id="sixteen_svg_21b" d="M160.8,73.3v-19c0-28.2-20.2-33.9-29.5-33.9 c-9.3,0-29.5,5.7-29.5,33.9v45c0,0,10.1-12.9,29.5-12.9c13.6,0,43,8.3,43,49.3v48.9c0,41-29.5,49.3-43,49.3c-13.6,0-43-8.3-43-49.3 V54c0-41,29.5-49.3,43-49.3c13.6,0,43,8.3,43,49.3v19.4"/>
			<path id="sixteen_svg_40b" d="M279.4,233.9h0.7c15.4-1.1,42.8-10.9,42.8-49.2 V54c0-41-31.5-49.3-46-49.3c-14.5,0-46,8.3-46,49.3v130.7c0,38.3,27.4,48,42.8,49.2h0.7"/>
			<path id="sixteen_svg_41b" d="M279.4,217.9h0.7c10.7-1.1,28.4-8.2,28.4-33.7 V54.4c0-28.2-21.6-33.9-31.6-33.9c-9.9,0-31.6,5.7-31.6,33.9v129.9c0,25.5,17.7,32.6,28.4,33.7h0.7"/>
			<path id="sixteen_svg_50b" d="M402.9,233.9h0.7c15.4-1.1,42.8-10.9,42.8-49.2 V54c0-41-31.5-49.3-46-49.3c-14.5,0-46,8.3-46,49.3v130.7c0,38.3,27.4,48,42.8,49.2h0.7"/>
			<path id="sixteen_svg_51b" d="M402.9,217.9h0.7c10.7-1.1,28.4-8.2,28.4-33.7 V54.4c0-28.2-21.6-33.9-31.6-33.9c-9.9,0-31.6,5.7-31.6,33.9v129.9c0,25.5,17.7,32.6,28.4,33.7h0.7"/>
			<path id="sixteen_svg_60b" d="M526.5,233.9h0.7c15.4-1.1,42.8-10.9,42.8-49.2 V54c0-41-31.5-49.3-46-49.3c-14.5,0-46,8.3-46,49.3v130.7c0,38.3,27.4,48,42.8,49.2h0.7"/>
			<path id="sixteen_svg_61b" d="M526.5,217.9h0.7c10.7-1.1,28.4-8.2,28.4-33.7 V54.4c0-28.2-21.6-33.9-31.6-33.9c-9.9,0-31.6,5.7-31.6,33.9v129.9c0,25.5,17.7,32.6,28.4,33.7h0.7"/>
		</g>
		<g stroke="white">
			<polyline id="sixteen_svg_10w" points="55.7,236.5 55.7,6.3 41.4,6.3 3.7,56.6 "/>
			<polyline id="sixteen_svg_11w" points="18.5,64.3 39.3,36.5 39.3,236.5 "/>
			<path id="sixteen_svg_20w" d="M101.7,136.2c0-28.2,20.2-33.9,29.5-33.9 c9.3,0,29.5,5.7,29.5,33.9v48.1c0,28.2-20.2,33.9-29.5,33.9c-9.3,0-29.5-5.7-29.5-33.9V136.2z"/>
			<path id="sixteen_svg_21w" d="M160.8,73.3v-19c0-28.2-20.2-33.9-29.5-33.9 c-9.3,0-29.5,5.7-29.5,33.9v45c0,0,10.1-12.9,29.5-12.9c13.6,0,43,8.3,43,49.3v48.9c0,41-29.5,49.3-43,49.3c-13.6,0-43-8.3-43-49.3 V54c0-41,29.5-49.3,43-49.3c13.6,0,43,8.3,43,49.3v19.4"/>
			<path id="sixteen_svg_40w" d="M279.4,233.9h0.7c15.4-1.1,42.8-10.9,42.8-49.2 V54c0-41-31.5-49.3-46-49.3c-14.5,0-46,8.3-46,49.3v130.7c0,38.3,27.4,48,42.8,49.2h0.7"/>
			<path id="sixteen_svg_41w" d="M279.4,217.9h0.7c10.7-1.1,28.4-8.2,28.4-33.7 V54.4c0-28.2-21.6-33.9-31.6-33.9c-9.9,0-31.6,5.7-31.6,33.9v129.9c0,25.5,17.7,32.6,28.4,33.7h0.7"/>
			<path id="sixteen_svg_50w" d="M402.9,233.9h0.7c15.4-1.1,42.8-10.9,42.8-49.2 V54c0-41-31.5-49.3-46-49.3c-14.5,0-46,8.3-46,49.3v130.7c0,38.3,27.4,48,42.8,49.2h0.7"/>
			<path id="sixteen_svg_51w" d="M402.9,217.9h0.7c10.7-1.1,28.4-8.2,28.4-33.7 V54.4c0-28.2-21.6-33.9-31.6-33.9c-9.9,0-31.6,5.7-31.6,33.9v129.9c0,25.5,17.7,32.6,28.4,33.7h0.7"/>
			<path id="sixteen_svg_60w" d="M526.5,233.9h0.7c15.4-1.1,42.8-10.9,42.8-49.2 V54c0-41-31.5-49.3-46-49.3c-14.5,0-46,8.3-46,49.3v130.7c0,38.3,27.4,48,42.8,49.2h0.7"/>
			<path id="sixteen_svg_61w" d="M526.5,217.9h0.7c10.7-1.1,28.4-8.2,28.4-33.7 V54.4c0-28.2-21.6-33.9-31.6-33.9c-9.9,0-31.6,5.7-31.6,33.9v129.9c0,25.5,17.7,32.6,28.4,33.7h0.7"/>
		</g>
	</g>
</svg>

