<svg version="1.1" id="sixteen_svg" xmlns="http://www.w3.org/2000/svg" xmlns:xlink="http://www.w3.org/1999/xlink" x="0px" y="0px"
	viewBox="-9.29 -8.26 204.38 99.12" width="100%" height="100%" xml:space="preserve">
	<!-- viewBox="0 0 185.8 82.6" -->
	<filter id="blur" x="-50%" width="200%" y="-50%" height="200%">
      <feGaussianBlur in="SourceGraphic" stdDeviation="4" />
    </filter>
	<g fill="none" stroke-width="3" stroke-miterlimit="10">
		<g stroke="#272727">
			<polyline id="sixteen_svg_10" points="17.9,75.8 17.9,2 13.3,2 1.2,18.1 "/>
			<polyline id="sixteen_svg_11" points="5.9,20.6 12.6,11.7 12.6,75.8 "/>
			<path id="sixteen_svg_20" d="M30.9,43.6c0-9,6.5-10.9,9.5-10.9 c3,0,9.5,1.8,9.5,10.9v15.4c0,9-6.5,10.9-9.5,10.9c-3,0-9.5-1.8-9.5-10.9V43.6z"/>
			<path id="sixteen_svg_21" d="M49.9,23.5v-6.1c0-9-6.5-10.9-9.5-10.9 c-3,0-9.5,1.8-9.5,10.9v14.4c0,0,3.2-4.1,9.5-4.1c4.3,0,13.8,2.6,13.8,15.8v15.7c0,13.2-9.4,15.8-13.8,15.8s-13.8-2.6-13.8-15.8 V17.3c0-13.2,9.4-15.8,13.8-15.8s13.8,2.6,13.8,15.8v6.2"/>
			<polyline id="sixteen_svg_30" points="58.9,82.6 58.9,82.3 63.6,68.8 63.6,68.5"/>
			<polyline id="sixteen_svg_31" points="64.7,82.6 64.7,82.3 69.5,68.8 69.5,68.5"/>
			<path id="sixteen_svg_40" d="M90.5,75h0.2c5-0.4,13.7-3.5,13.7-15.8V17.3 c0-13.2-10.1-15.8-14.7-15.8S75,4.1,75,17.3v41.9c0,12.3,8.8,15.4,13.7,15.8h0.2"/>
			<path id="sixteen_svg_41" d="M90.5,69.9h0.2c3.4-0.4,9.1-2.6,9.1-10.8V17.4 c0-9-6.9-10.9-10.1-10.9S79.6,8.4,79.6,17.4v41.6c0,8.2,5.7,10.4,9.1,10.8h0.2"/>
			<path id="sixteen_svg_50" d="M130.4,75h0.2c5-0.4,13.7-3.5,13.7-15.8V17.3 c0-13.2-10.1-15.8-14.7-15.8s-14.7,2.6-14.7,15.8v41.9c0,12.3,8.8,15.4,13.7,15.8h0.2"/>
			<path id="sixteen_svg_51" d="M130.4,69.9h0.2c3.4-0.4,9.1-2.6,9.1-10.8V17.4 c0-9-6.9-10.9-10.1-10.9s-10.1,1.8-10.1,10.9v41.6c0,8.2,5.7,10.4,9.1,10.8h0.2"/>
			<path id="sixteen_svg_60" d="M170.4,75h0.2c5-0.4,13.7-3.5,13.7-15.8V17.3 c0-13.2-10.1-15.8-14.7-15.8s-14.7,2.6-14.7,15.8v41.9c0,12.3,8.8,15.4,13.7,15.8h0.2"/>
			<path id="sixteen_svg_61" d="M170.4,69.9h0.2c3.4-0.4,9.1-2.6,9.1-10.8V17.4 c0-9-6.9-10.9-10.1-10.9s-10.1,1.8-10.1,10.9v41.6c0,8.2,5.7,10.4,9.1,10.8h0.2"/>
		</g>
		<g stroke="white" filter="url(#blur)">
			<polyline id="sixteen_svg_10b" points="17.9,75.8 17.9,2 13.3,2 1.2,18.1 "/>
			<polyline id="sixteen_svg_11b" points="5.9,20.6 12.6,11.7 12.6,75.8 "/>
			<path id="sixteen_svg_20b" d="M30.9,43.6c0-9,6.5-10.9,9.5-10.9 c3,0,9.5,1.8,9.5,10.9v15.4c0,9-6.5,10.9-9.5,10.9c-3,0-9.5-1.8-9.5-10.9V43.6z"/>
			<path id="sixteen_svg_21b" d="M49.9,23.5v-6.1c0-9-6.5-10.9-9.5-10.9 c-3,0-9.5,1.8-9.5,10.9v14.4c0,0,3.2-4.1,9.5-4.1c4.3,0,13.8,2.6,13.8,15.8v15.7c0,13.2-9.4,15.8-13.8,15.8s-13.8-2.6-13.8-15.8 V17.3c0-13.2,9.4-15.8,13.8-15.8s13.8,2.6,13.8,15.8v6.2"/>
			<polyline id="sixteen_svg_30b" points="58.9,82.6 58.9,82.3 63.6,68.8 63.6,68.5"/>
			<polyline id="sixteen_svg_31b" points="64.7,82.6 64.7,82.3 69.5,68.8 69.5,68.5"/>
			<path id="sixteen_svg_40b" d="M90.5,75h0.2c5-0.4,13.7-3.5,13.7-15.8V17.3 c0-13.2-10.1-15.8-14.7-15.8S75,4.1,75,17.3v41.9c0,12.3,8.8,15.4,13.7,15.8h0.2"/>
			<path id="sixteen_svg_41b" d="M90.5,69.9h0.2c3.4-0.4,9.1-2.6,9.1-10.8V17.4 c0-9-6.9-10.9-10.1-10.9S79.6,8.4,79.6,17.4v41.6c0,8.2,5.7,10.4,9.1,10.8h0.2"/>
			<path id="sixteen_svg_50b" d="M130.4,75h0.2c5-0.4,13.7-3.5,13.7-15.8V17.3 c0-13.2-10.1-15.8-14.7-15.8s-14.7,2.6-14.7,15.8v41.9c0,12.3,8.8,15.4,13.7,15.8h0.2"/>
			<path id="sixteen_svg_51b" d="M130.4,69.9h0.2c3.4-0.4,9.1-2.6,9.1-10.8V17.4 c0-9-6.9-10.9-10.1-10.9s-10.1,1.8-10.1,10.9v41.6c0,8.2,5.7,10.4,9.1,10.8h0.2"/>
			<path id="sixteen_svg_60b" d="M170.4,75h0.2c5-0.4,13.7-3.5,13.7-15.8V17.3 c0-13.2-10.1-15.8-14.7-15.8s-14.7,2.6-14.7,15.8v41.9c0,12.3,8.8,15.4,13.7,15.8h0.2"/>
			<path id="sixteen_svg_61b" d="M170.4,69.9h0.2c3.4-0.4,9.1-2.6,9.1-10.8V17.4 c0-9-6.9-10.9-10.1-10.9s-10.1,1.8-10.1,10.9v41.6c0,8.2,5.7,10.4,9.1,10.8h0.2"/>
		</g>
		<g stroke="white">
			<polyline id="sixteen_svg_10w" points="17.9,75.8 17.9,2 13.3,2 1.2,18.1 "/>
			<polyline id="sixteen_svg_11w" points="5.9,20.6 12.6,11.7 12.6,75.8 "/>
			<path id="sixteen_svg_20w" d="M30.9,43.6c0-9,6.5-10.9,9.5-10.9 c3,0,9.5,1.8,9.5,10.9v15.4c0,9-6.5,10.9-9.5,10.9c-3,0-9.5-1.8-9.5-10.9V43.6z"/>
			<path id="sixteen_svg_21w" d="M49.9,23.5v-6.1c0-9-6.5-10.9-9.5-10.9 c-3,0-9.5,1.8-9.5,10.9v14.4c0,0,3.2-4.1,9.5-4.1c4.3,0,13.8,2.6,13.8,15.8v15.7c0,13.2-9.4,15.8-13.8,15.8s-13.8-2.6-13.8-15.8 V17.3c0-13.2,9.4-15.8,13.8-15.8s13.8,2.6,13.8,15.8v6.2"/>
			<polyline id="sixteen_svg_30w" points="58.9,82.6 58.9,82.3 63.6,68.8 63.6,68.5"/>
			<polyline id="sixteen_svg_31w" points="64.7,82.6 64.7,82.3 69.5,68.8 69.5,68.5"/>
			<path id="sixteen_svg_40w" d="M90.5,75h0.2c5-0.4,13.7-3.5,13.7-15.8V17.3 c0-13.2-10.1-15.8-14.7-15.8S75,4.1,75,17.3v41.9c0,12.3,8.8,15.4,13.7,15.8h0.2"/>
			<path id="sixteen_svg_41w" d="M90.5,69.9h0.2c3.4-0.4,9.1-2.6,9.1-10.8V17.4 c0-9-6.9-10.9-10.1-10.9S79.6,8.4,79.6,17.4v41.6c0,8.2,5.7,10.4,9.1,10.8h0.2"/>
			<path id="sixteen_svg_50w" d="M130.4,75h0.2c5-0.4,13.7-3.5,13.7-15.8V17.3 c0-13.2-10.1-15.8-14.7-15.8s-14.7,2.6-14.7,15.8v41.9c0,12.3,8.8,15.4,13.7,15.8h0.2"/>
			<path id="sixteen_svg_51w" d="M130.4,69.9h0.2c3.4-0.4,9.1-2.6,9.1-10.8V17.4 c0-9-6.9-10.9-10.1-10.9s-10.1,1.8-10.1,10.9v41.6c0,8.2,5.7,10.4,9.1,10.8h0.2"/>
			<path id="sixteen_svg_60w" d="M170.4,75h0.2c5-0.4,13.7-3.5,13.7-15.8V17.3 c0-13.2-10.1-15.8-14.7-15.8s-14.7,2.6-14.7,15.8v41.9c0,12.3,8.8,15.4,13.7,15.8h0.2"/>
			<path id="sixteen_svg_61w" d="M170.4,69.9h0.2c3.4-0.4,9.1-2.6,9.1-10.8V17.4 c0-9-6.9-10.9-10.1-10.9s-10.1,1.8-10.1,10.9v41.6c0,8.2,5.7,10.4,9.1,10.8h0.2"/>
		</g>
	</g>
</svg>
