<?xml version="1.0" encoding="utf-8"?>
<!-- Generator: Adobe Illustrator 18.1.1, SVG Export Plug-In . SVG Version: 6.00 Build 0)  -->
<svg version="1.1" id="Layer_1" xmlns="http://www.w3.org/2000/svg" xmlns:xlink="http://www.w3.org/1999/xlink" x="0px" y="0px"
	 viewBox="4 7 28 20" enable-background="new 4 7 28 20" xml:space="preserve">
<path d="M6,11h24c1.1,0,2-0.9,2-2s-0.9-2-2-2H6C4.9,7,4,7.9,4,9S4.9,11,6,11z M30,15H6c-1.1,0-2,0.9-2,2s0.9,2,2,2h24
	c1.1,0,2-0.9,2-2S31.1,15,30,15z M30,23H6c-1.1,0-2,0.9-2,2s0.9,2,2,2h24c1.1,0,2-0.9,2-2S31.1,23,30,23z"/>
</svg>
