<svg version="1.1" id="newheadline_svg" xmlns="http://www.w3.org/2000/svg" xmlns:xlink="http://www.w3.org/1999/xlink" x="0px" y="0px"
	viewBox="-34.41 -7.24 757.02 159.28" width="100%" height="100%" xml:space="preserve">
	<!-- viewBox="0 0 688.2 144.8" -->
	<filter id="blur" x="-50%" width="200%" y="-50%" height="200%">
      <feGaussianBlur in="SourceGraphic" stdDeviation="4" />
    </filter>
	<g fill="none" stroke-width="5.622" stroke-miterlimit="10">
		<g stroke="#272727">
			<path id="newheadline_svg_10" d="M33.2,141.9h0.4c9.4-0.7,26-6.6,26-29.9V32.7 c0-24.9-19.1-29.9-27.9-29.9c-8.8,0-27.9,5-27.9,29.9v79.4c0,23.2,16.6,29.2,26,29.9h0.4"/>
			<path id="newheadline_svg_11" d="M33.2,132.3h0.4c6.5-0.7,17.3-5,17.3-20.4V33 c0-17.1-13.1-20.6-19.2-20.6c-6,0-19.2,3.4-19.2,20.6v78.9c0,15.5,10.7,19.8,17.3,20.4h0.4"/>
			<path id="newheadline_svg_20" d="M145.7,1.7v110.1c0,24.7-21.5,29.6-31.4,29.6 c-9.9,0-31.4-5-31.4-29.6V1.7"/>
			<path id="newheadline_svg_21" d="M92.8,1.5v110.1c0,16.9,14.8,20.3,21.6,20.3 c6.8,0,21.6-3.4,21.6-20.3V1.7"/>
			<path id="newheadline_svg_30" d="M179.8,143.3V78H200c10.4,0,18.1,6.2,18.1,19.9 v45.4"/>
			<path id="newheadline_svg_31" d="M192.4,67.3h-13.6V14.6h13.6 c14.8,0,24.6,6.3,24.6,26.3C217,60.9,211.5,67.3,192.4,67.3z"/>
			<path id="newheadline_svg_32" d="M228.1,143.3V96.2c0-16.2-11.9-24.1-11.9-24.1 c7.7-4.6,11.7-14.5,11.7-30.7c0-31.3-18.1-36.5-34.5-36.5h-23.8v138.5"/>
			<line id="newheadline_svg_40"  x1="285" y1="1.7" x2="285" y2="142.9"/>
			<line id="newheadline_svg_41" x1="294.8" y1="142.9" x2="294.8" y2="1.7"/>
			<polyline id="newheadline_svg_50" points="395.2,142.9 395.2,4.6 387.2,4.6 358.8,114.9 330.4,4.6 322.5,4.6 322.5,142.9 "/>
			<polyline id="newheadline_svg_51" points="385.4,142.9 385.4,52.9 362.3,140.3 355.3,140.3 332.3,52.9 332.3,142.9 "/>
			<path id="newheadline_svg_60" d="M421.8,143.3V4.8h23.8 c16.4,0,34.5,5.1,34.5,36.5c0,31.3-15.4,36.7-34.5,36.7h-13.6v65.3"/>
			<path id="newheadline_svg_61" d="M445.5,67.3h-13.6V14.6h13.6 c14.8,0,24.6,6.3,24.6,26.3C470.1,60.9,464.6,67.3,445.5,67.3z"/>
			<polyline id="newheadline_svg_70"  points="544.1,143.4 544.1,142.9 513,4.8 506.8,4.8 475.6,142.9 475.6,143.4 "/>
			<polyline id="newheadline_svg_71" points="534.4,143.4 534.4,142.9 524.6,99.2 495.2,99.2 485.3,142.9 485.3,143.4 "/>
			<polygon id="newheadline_svg_72" points="522.7,90.7 509.9,34 497.1,90.7 "/>
			<path id="newheadline_svg_80" d="M618.3,49.7V32.8c0-24.7-21.5-29.6-31.4-29.6 c-9.9,0-31.4,5-31.4,29.6v79c0,24.7,21.5,29.6,31.4,29.6c9.9,0,31.4-5,31.4-29.6v-17"/>
			<path id="newheadline_svg_81" d="M608.1,49.7l0.4-16.7 c0-16.9-14.8-20.3-21.6-20.3c-6.8,0-21.6,3.4-21.6,20.3v78.5c0,16.9,14.8,20.3,21.6,20.3c6.8,0,21.6-3.4,21.6-20.3V94.8"/>
			<polyline id="newheadline_svg_90" points="662.1,142.9 662.1,14.6 688.2,14.6 "/>
			<polyline id="newheadline_svg_91" points="652.3,142.9 652.3,14.6 626.1,14.6 "/>
			<line id="newheadline_svg_92" x1="626.2" y1="4.7" x2="688.2" y2="4.7"/>
		</g>
		<g stroke="white" filter="url(#blur)">
			<path id="newheadline_svg_10b" d="M33.2,141.9h0.4c9.4-0.7,26-6.6,26-29.9V32.7 c0-24.9-19.1-29.9-27.9-29.9c-8.8,0-27.9,5-27.9,29.9v79.4c0,23.2,16.6,29.2,26,29.9h0.4"/>
			<path id="newheadline_svg_11b" d="M33.2,132.3h0.4c6.5-0.7,17.3-5,17.3-20.4V33 c0-17.1-13.1-20.6-19.2-20.6c-6,0-19.2,3.4-19.2,20.6v78.9c0,15.5,10.7,19.8,17.3,20.4h0.4"/>
			<path id="newheadline_svg_20b" d="M145.7,1.7v110.1c0,24.7-21.5,29.6-31.4,29.6 c-9.9,0-31.4-5-31.4-29.6V1.7"/>
			<path id="newheadline_svg_21b" d="M92.8,1.5v110.1c0,16.9,14.8,20.3,21.6,20.3 c6.8,0,21.6-3.4,21.6-20.3V1.7"/>
			<path id="newheadline_svg_30b" d="M179.8,143.3V78H200c10.4,0,18.1,6.2,18.1,19.9 v45.4"/>
			<path id="newheadline_svg_31b" d="M192.4,67.3h-13.6V14.6h13.6 c14.8,0,24.6,6.3,24.6,26.3C217,60.9,211.5,67.3,192.4,67.3z"/>
			<path id="newheadline_svg_32b" d="M228.1,143.3V96.2c0-16.2-11.9-24.1-11.9-24.1 c7.7-4.6,11.7-14.5,11.7-30.7c0-31.3-18.1-36.5-34.5-36.5h-23.8v138.5"/>
			<line id="newheadline_svg_40b"  x1="285" y1="1.7" x2="285" y2="142.9"/>
			<line id="newheadline_svg_41b" x1="294.8" y1="142.9" x2="294.8" y2="1.7"/>
			<polyline id="newheadline_svg_50b" points="395.2,142.9 395.2,4.6 387.2,4.6 358.8,114.9 330.4,4.6 322.5,4.6 322.5,142.9 "/>
			<polyline id="newheadline_svg_51b" points="385.4,142.9 385.4,52.9 362.3,140.3 355.3,140.3 332.3,52.9 332.3,142.9 "/>
			<path id="newheadline_svg_60b" d="M421.8,143.3V4.8h23.8 c16.4,0,34.5,5.1,34.5,36.5c0,31.3-15.4,36.7-34.5,36.7h-13.6v65.3"/>
			<path id="newheadline_svg_61b" d="M445.5,67.3h-13.6V14.6h13.6 c14.8,0,24.6,6.3,24.6,26.3C470.1,60.9,464.6,67.3,445.5,67.3z"/>
			<polyline id="newheadline_svg_70b"  points="544.1,143.4 544.1,142.9 513,4.8 506.8,4.8 475.6,142.9 475.6,143.4 "/>
			<polyline id="newheadline_svg_71b" points="534.4,143.4 534.4,142.9 524.6,99.2 495.2,99.2 485.3,142.9 485.3,143.4 "/>
			<polygon id="newheadline_svg_72b" points="522.7,90.7 509.9,34 497.1,90.7 "/>
			<path id="newheadline_svg_80b" d="M618.3,49.7V32.8c0-24.7-21.5-29.6-31.4-29.6 c-9.9,0-31.4,5-31.4,29.6v79c0,24.7,21.5,29.6,31.4,29.6c9.9,0,31.4-5,31.4-29.6v-17"/>
			<path id="newheadline_svg_81b" d="M608.1,49.7l0.4-16.7 c0-16.9-14.8-20.3-21.6-20.3c-6.8,0-21.6,3.4-21.6,20.3v78.5c0,16.9,14.8,20.3,21.6,20.3c6.8,0,21.6-3.4,21.6-20.3V94.8"/>
			<polyline id="newheadline_svg_90b" points="662.1,142.9 662.1,14.6 688.2,14.6 "/>
			<polyline id="newheadline_svg_91b" points="652.3,142.9 652.3,14.6 626.1,14.6 "/>
			<line id="newheadline_svg_92b" x1="626.2" y1="4.7" x2="688.2" y2="4.7"/>
		</g>
		<g stroke="white">
			<path id="newheadline_svg_10w" d="M33.2,141.9h0.4c9.4-0.7,26-6.6,26-29.9V32.7 c0-24.9-19.1-29.9-27.9-29.9c-8.8,0-27.9,5-27.9,29.9v79.4c0,23.2,16.6,29.2,26,29.9h0.4"/>
			<path id="newheadline_svg_11w" d="M33.2,132.3h0.4c6.5-0.7,17.3-5,17.3-20.4V33 c0-17.1-13.1-20.6-19.2-20.6c-6,0-19.2,3.4-19.2,20.6v78.9c0,15.5,10.7,19.8,17.3,20.4h0.4"/>
			<path id="newheadline_svg_20w" d="M145.7,1.7v110.1c0,24.7-21.5,29.6-31.4,29.6 c-9.9,0-31.4-5-31.4-29.6V1.7"/>
			<path id="newheadline_svg_21w" d="M92.8,1.5v110.1c0,16.9,14.8,20.3,21.6,20.3 c6.8,0,21.6-3.4,21.6-20.3V1.7"/>
			<path id="newheadline_svg_30w" d="M179.8,143.3V78H200c10.4,0,18.1,6.2,18.1,19.9 v45.4"/>
			<path id="newheadline_svg_31w" d="M192.4,67.3h-13.6V14.6h13.6 c14.8,0,24.6,6.3,24.6,26.3C217,60.9,211.5,67.3,192.4,67.3z"/>
			<path id="newheadline_svg_32w" d="M228.1,143.3V96.2c0-16.2-11.9-24.1-11.9-24.1 c7.7-4.6,11.7-14.5,11.7-30.7c0-31.3-18.1-36.5-34.5-36.5h-23.8v138.5"/>
			<line id="newheadline_svg_40w"  x1="285" y1="1.7" x2="285" y2="142.9"/>
			<line id="newheadline_svg_41w" x1="294.8" y1="142.9" x2="294.8" y2="1.7"/>
			<polyline id="newheadline_svg_50w" points="395.2,142.9 395.2,4.6 387.2,4.6 358.8,114.9 330.4,4.6 322.5,4.6 322.5,142.9 "/>
			<polyline id="newheadline_svg_51w" points="385.4,142.9 385.4,52.9 362.3,140.3 355.3,140.3 332.3,52.9 332.3,142.9 "/>
			<path id="newheadline_svg_60w" d="M421.8,143.3V4.8h23.8 c16.4,0,34.5,5.1,34.5,36.5c0,31.3-15.4,36.7-34.5,36.7h-13.6v65.3"/>
			<path id="newheadline_svg_61w" d="M445.5,67.3h-13.6V14.6h13.6 c14.8,0,24.6,6.3,24.6,26.3C470.1,60.9,464.6,67.3,445.5,67.3z"/>
			<polyline id="newheadline_svg_70w"  points="544.1,143.4 544.1,142.9 513,4.8 506.8,4.8 475.6,142.9 475.6,143.4 "/>
			<polyline id="newheadline_svg_71w" points="534.4,143.4 534.4,142.9 524.6,99.2 495.2,99.2 485.3,142.9 485.3,143.4 "/>
			<polygon id="newheadline_svg_72w" points="522.7,90.7 509.9,34 497.1,90.7 "/>
			<path id="newheadline_svg_80w" d="M618.3,49.7V32.8c0-24.7-21.5-29.6-31.4-29.6 c-9.9,0-31.4,5-31.4,29.6v79c0,24.7,21.5,29.6,31.4,29.6c9.9,0,31.4-5,31.4-29.6v-17"/>
			<path id="newheadline_svg_81w" d="M608.1,49.7l0.4-16.7 c0-16.9-14.8-20.3-21.6-20.3c-6.8,0-21.6,3.4-21.6,20.3v78.5c0,16.9,14.8,20.3,21.6,20.3c6.8,0,21.6-3.4,21.6-20.3V94.8"/>
			<polyline id="newheadline_svg_90w" points="662.1,142.9 662.1,14.6 688.2,14.6 "/>
			<polyline id="newheadline_svg_91w" points="652.3,142.9 652.3,14.6 626.1,14.6 "/>
			<line id="newheadline_svg_92w" x1="626.2" y1="4.7" x2="688.2" y2="4.7"/>
		</g>
	</g>
</svg>
