<svg version="1.1" id="newheadline_svg" xmlns="http://www.w3.org/2000/svg" xmlns:xlink="http://www.w3.org/1999/xlink" x="0px" y="0px"
	viewBox="-38.205 -7.24 840.51 159.28" width="100%" height="100%" xml:space="preserve">
	<!-- viewBox="0 0 764.1 144.8" -->
	<filter id="blur" x="-50%" width="200%" y="-50%" height="200%">
    	<feGaussianBlur in="SourceGraphic" stdDeviation="4" />
    </filter>
    <g fill="none" stroke-width="5.613" stroke-miterlimit="10">
		<g stroke="#272727">
			<polyline id="newheadline_svg_10" points="53.2,1.3 53.2,109.3 10.9,3.9 2.8,3.9 2.8,143.6 "/>
			<polyline id="newheadline_svg_11" points="13,143.6 13,35.6 55.4,141 63.4,141 63.4,1.3 "/>
			<path id="newheadline_svg_20" d="M119.3,141.9h0.4c9.4-0.7,26-6.6,26-29.8V32.8 c0-24.9-19.1-29.9-27.9-29.9s-27.9,5-27.9,29.9v79.3c0,23.2,16.6,29.1,26,29.8h0.4"/>
			<path id="newheadline_svg_21" d="M119.3,132.3h0.4c6.5-0.7,17.2-5,17.2-20.4V33 c0-17.1-13.1-20.5-19.2-20.5c-6,0-19.2,3.4-19.2,20.5v78.8c0,15.5,10.7,19.8,17.2,20.4h0.4"/>
			<path id="newheadline_svg_30" d="M177.8,96.9v14.9c0,17.1,14.9,20.5,21.8,20.5 c6.9,0,21.8-3.4,21.8-20.5c0-28.1-53.9-43.4-53.9-79.1c0-24.9,21.7-29.9,31.7-29.9c10,0,31.7,5,31.7,29.9v15.2"/>
			<path id="newheadline_svg_31" d="M220.6,47.9V33c0-17.1-14.9-20.5-21.8-20.5 c-6.9,0-21.8,3.4-21.8,20.5c0,28.1,53.9,43.4,53.9,79.1c0,24.9-21.7,29.9-31.7,29.9c-10,0-31.7-5-31.7-29.9V96.9"/>
			<line id="newheadline_svg_40" x1="287.2" y1="1.7" x2="287.2" y2="142.9"/>
			<line id="newheadline_svg_41" x1="297.1" y1="142.9" x2="297.1" y2="1.7"/>
			<polyline id="newheadline_svg_50" points="397.5,142.9 397.5,4.6 389.5,4.6 361.1,114.9 332.7,4.6 324.7,4.6 324.7,142.9 "/>
			<polyline id="newheadline_svg_51" points="387.7,142.9 387.7,52.9 364.6,140.3 357.6,140.3 334.6,52.9 334.6,142.9 "/>
			<path id="newheadline_svg_60" d="M424.1,143.3V4.8h23.8 c16.4,0,34.5,5.1,34.5,36.5c0,31.3-15.4,36.7-34.5,36.7h-13.6v65.3"/>
			<path id="newheadline_svg_61" d="M447.8,67.3h-13.6V14.6h13.6 c14.8,0,24.6,6.3,24.6,26.3C472.4,60.9,466.9,67.3,447.8,67.3z"/>
			<polyline id="newheadline_svg_70" points="545.4,143.4 545.4,142.9 514.2,4.8 508.1,4.8 476.9,142.9 476.9,143.4 "/>
			<polyline id="newheadline_svg_71" points="535.7,143.4 535.7,142.9 525.9,99.2 496.5,99.2 486.6,142.9 486.6,143.4 "/>
			<polygon id="newheadline_svg_72" points="523.9,90.7 511.2,34 498.4,90.7 "/>
			<path id="newheadline_svg_80" d="M620.6,49.7V32.8c0-24.7-21.5-29.6-31.4-29.6 c-9.9,0-31.4,5-31.4,29.6v79c0,24.7,21.5,29.6,31.4,29.6c9.9,0,31.4-5,31.4-29.6v-17"/>
			<path id="newheadline_svg_81" d="M610.4,49.7l0.4-16.7 c0-16.9-14.8-20.3-21.6-20.3c-6.8,0-21.6,3.4-21.6,20.3v78.5c0,16.9,14.8,20.3,21.6,20.3c6.8,0,21.6-3.4,21.6-20.3V94.8"/>
			<polyline id="newheadline_svg_90" points="664.4,142.9 664.4,14.6 690.5,14.6 "/>
			<polyline id="newheadline_svg_91" points="654.5,142.9 654.5,14.6 628.4,14.6 "/>
			<line id="newheadline_svg_92" x1="628.4" y1="4.7" x2="690.5" y2="4.7"/>
			<path id="newheadline_svg_100" d="M708.2,96.9v14.9c0,17.1,14.9,20.5,21.8,20.5 c6.9,0,21.8-3.4,21.8-20.5c0-28.1-53.9-43.4-53.9-79.1c0-24.9,21.7-29.9,31.7-29.9c10,0,31.7,5,31.7,29.9v15.2"/>
			<path id="newheadline_svg_101" d="M751,47.9V33c0-17.1-14.9-20.5-21.8-20.5 c-6.9,0-21.8,3.4-21.8,20.5c0,28.1,53.9,43.4,53.9,79.1c0,24.9-21.7,29.9-31.7,29.9c-10,0-31.7-5-31.7-29.9V96.9"/>
		</g>
		<g stroke="white" filter="url(#blur)">
			<polyline id="newheadline_svg_10b" points="53.2,1.3 53.2,109.3 10.9,3.9 2.8,3.9 2.8,143.6 "/>
			<polyline id="newheadline_svg_11b" points="13,143.6 13,35.6 55.4,141 63.4,141 63.4,1.3 "/>
			<path id="newheadline_svg_20b" d="M119.3,141.9h0.4c9.4-0.7,26-6.6,26-29.8V32.8 c0-24.9-19.1-29.9-27.9-29.9s-27.9,5-27.9,29.9v79.3c0,23.2,16.6,29.1,26,29.8h0.4"/>
			<path id="newheadline_svg_21b" d="M119.3,132.3h0.4c6.5-0.7,17.2-5,17.2-20.4V33 c0-17.1-13.1-20.5-19.2-20.5c-6,0-19.2,3.4-19.2,20.5v78.8c0,15.5,10.7,19.8,17.2,20.4h0.4"/>
			<path id="newheadline_svg_30b" d="M177.8,96.9v14.9c0,17.1,14.9,20.5,21.8,20.5 c6.9,0,21.8-3.4,21.8-20.5c0-28.1-53.9-43.4-53.9-79.1c0-24.9,21.7-29.9,31.7-29.9c10,0,31.7,5,31.7,29.9v15.2"/>
			<path id="newheadline_svg_31b" d="M220.6,47.9V33c0-17.1-14.9-20.5-21.8-20.5 c-6.9,0-21.8,3.4-21.8,20.5c0,28.1,53.9,43.4,53.9,79.1c0,24.9-21.7,29.9-31.7,29.9c-10,0-31.7-5-31.7-29.9V96.9"/>
			<line id="newheadline_svg_40b" x1="287.2" y1="1.7" x2="287.2" y2="142.9"/>
			<line id="newheadline_svg_41b" x1="297.1" y1="142.9" x2="297.1" y2="1.7"/>
			<polyline id="newheadline_svg_50b" points="397.5,142.9 397.5,4.6 389.5,4.6 361.1,114.9 332.7,4.6 324.7,4.6 324.7,142.9 "/>
			<polyline id="newheadline_svg_51b" points="387.7,142.9 387.7,52.9 364.6,140.3 357.6,140.3 334.6,52.9 334.6,142.9 "/>
			<path id="newheadline_svg_60b" d="M424.1,143.3V4.8h23.8 c16.4,0,34.5,5.1,34.5,36.5c0,31.3-15.4,36.7-34.5,36.7h-13.6v65.3"/>
			<path id="newheadline_svg_61b" d="M447.8,67.3h-13.6V14.6h13.6 c14.8,0,24.6,6.3,24.6,26.3C472.4,60.9,466.9,67.3,447.8,67.3z"/>
			<polyline id="newheadline_svg_70b" points="545.4,143.4 545.4,142.9 514.2,4.8 508.1,4.8 476.9,142.9 476.9,143.4 "/>
			<polyline id="newheadline_svg_71b" points="535.7,143.4 535.7,142.9 525.9,99.2 496.5,99.2 486.6,142.9 486.6,143.4 "/>
			<polygon id="newheadline_svg_72b" points="523.9,90.7 511.2,34 498.4,90.7 "/>
			<path id="newheadline_svg_80b" d="M620.6,49.7V32.8c0-24.7-21.5-29.6-31.4-29.6 c-9.9,0-31.4,5-31.4,29.6v79c0,24.7,21.5,29.6,31.4,29.6c9.9,0,31.4-5,31.4-29.6v-17"/>
			<path id="newheadline_svg_81b" d="M610.4,49.7l0.4-16.7 c0-16.9-14.8-20.3-21.6-20.3c-6.8,0-21.6,3.4-21.6,20.3v78.5c0,16.9,14.8,20.3,21.6,20.3c6.8,0,21.6-3.4,21.6-20.3V94.8"/>
			<polyline id="newheadline_svg_90b" points="664.4,142.9 664.4,14.6 690.5,14.6 "/>
			<polyline id="newheadline_svg_91b" points="654.5,142.9 654.5,14.6 628.4,14.6 "/>
			<line id="newheadline_svg_92b" x1="628.4" y1="4.7" x2="690.5" y2="4.7"/>
			<path id="newheadline_svg_100b" d="M708.2,96.9v14.9c0,17.1,14.9,20.5,21.8,20.5 c6.9,0,21.8-3.4,21.8-20.5c0-28.1-53.9-43.4-53.9-79.1c0-24.9,21.7-29.9,31.7-29.9c10,0,31.7,5,31.7,29.9v15.2"/>
			<path id="newheadline_svg_101b" d="M751,47.9V33c0-17.1-14.9-20.5-21.8-20.5 c-6.9,0-21.8,3.4-21.8,20.5c0,28.1,53.9,43.4,53.9,79.1c0,24.9-21.7,29.9-31.7,29.9c-10,0-31.7-5-31.7-29.9V96.9"/>
		</g>
		<g stroke="white">
			<polyline id="newheadline_svg_10w" points="53.2,1.3 53.2,109.3 10.9,3.9 2.8,3.9 2.8,143.6 "/>
			<polyline id="newheadline_svg_11w" points="13,143.6 13,35.6 55.4,141 63.4,141 63.4,1.3 "/>
			<path id="newheadline_svg_20w" d="M119.3,141.9h0.4c9.4-0.7,26-6.6,26-29.8V32.8 c0-24.9-19.1-29.9-27.9-29.9s-27.9,5-27.9,29.9v79.3c0,23.2,16.6,29.1,26,29.8h0.4"/>
			<path id="newheadline_svg_21w" d="M119.3,132.3h0.4c6.5-0.7,17.2-5,17.2-20.4V33 c0-17.1-13.1-20.5-19.2-20.5c-6,0-19.2,3.4-19.2,20.5v78.8c0,15.5,10.7,19.8,17.2,20.4h0.4"/>
			<path id="newheadline_svg_30w" d="M177.8,96.9v14.9c0,17.1,14.9,20.5,21.8,20.5 c6.9,0,21.8-3.4,21.8-20.5c0-28.1-53.9-43.4-53.9-79.1c0-24.9,21.7-29.9,31.7-29.9c10,0,31.7,5,31.7,29.9v15.2"/>
			<path id="newheadline_svg_31w" d="M220.6,47.9V33c0-17.1-14.9-20.5-21.8-20.5 c-6.9,0-21.8,3.4-21.8,20.5c0,28.1,53.9,43.4,53.9,79.1c0,24.9-21.7,29.9-31.7,29.9c-10,0-31.7-5-31.7-29.9V96.9"/>
			<line id="newheadline_svg_40w" x1="287.2" y1="1.7" x2="287.2" y2="142.9"/>
			<line id="newheadline_svg_41w" x1="297.1" y1="142.9" x2="297.1" y2="1.7"/>
			<polyline id="newheadline_svg_50w" points="397.5,142.9 397.5,4.6 389.5,4.6 361.1,114.9 332.7,4.6 324.7,4.6 324.7,142.9 "/>
			<polyline id="newheadline_svg_51w" points="387.7,142.9 387.7,52.9 364.6,140.3 357.6,140.3 334.6,52.9 334.6,142.9 "/>
			<path id="newheadline_svg_60w" d="M424.1,143.3V4.8h23.8 c16.4,0,34.5,5.1,34.5,36.5c0,31.3-15.4,36.7-34.5,36.7h-13.6v65.3"/>
			<path id="newheadline_svg_61w" d="M447.8,67.3h-13.6V14.6h13.6 c14.8,0,24.6,6.3,24.6,26.3C472.4,60.9,466.9,67.3,447.8,67.3z"/>
			<polyline id="newheadline_svg_70w" points="545.4,143.4 545.4,142.9 514.2,4.8 508.1,4.8 476.9,142.9 476.9,143.4 "/>
			<polyline id="newheadline_svg_71w" points="535.7,143.4 535.7,142.9 525.9,99.2 496.5,99.2 486.6,142.9 486.6,143.4 "/>
			<polygon id="newheadline_svg_72w" points="523.9,90.7 511.2,34 498.4,90.7 "/>
			<path id="newheadline_svg_80w" d="M620.6,49.7V32.8c0-24.7-21.5-29.6-31.4-29.6 c-9.9,0-31.4,5-31.4,29.6v79c0,24.7,21.5,29.6,31.4,29.6c9.9,0,31.4-5,31.4-29.6v-17"/>
			<path id="newheadline_svg_81w" d="M610.4,49.7l0.4-16.7 c0-16.9-14.8-20.3-21.6-20.3c-6.8,0-21.6,3.4-21.6,20.3v78.5c0,16.9,14.8,20.3,21.6,20.3c6.8,0,21.6-3.4,21.6-20.3V94.8"/>
			<polyline id="newheadline_svg_90w" points="664.4,142.9 664.4,14.6 690.5,14.6 "/>
			<polyline id="newheadline_svg_91w" points="654.5,142.9 654.5,14.6 628.4,14.6 "/>
			<line id="newheadline_svg_92w" x1="628.4" y1="4.7" x2="690.5" y2="4.7"/>
			<path id="newheadline_svg_100w" d="M708.2,96.9v14.9c0,17.1,14.9,20.5,21.8,20.5 c6.9,0,21.8-3.4,21.8-20.5c0-28.1-53.9-43.4-53.9-79.1c0-24.9,21.7-29.9,31.7-29.9c10,0,31.7,5,31.7,29.9v15.2"/>
			<path id="newheadline_svg_101w" d="M751,47.9V33c0-17.1-14.9-20.5-21.8-20.5 c-6.9,0-21.8,3.4-21.8,20.5c0,28.1,53.9,43.4,53.9,79.1c0,24.9-21.7,29.9-31.7,29.9c-10,0-31.7-5-31.7-29.9V96.9"/>
		</g>
	</g>
</svg>