<svg version="1.1" id="Layer_1" xmlns="http://www.w3.org/2000/svg" xmlns:xlink="http://www.w3.org/1999/xlink" x="0px" y="0px"
	 viewBox="0 0 806.1 148.4" width="100%" height="100%" xml:space="preserve">
<g>
	<path fill="#FFFFFF" d="M0,125.3l3.3-3.3c14.6,14.2,33.2,22.3,54.2,22.3c27,0,44.3-14.6,44.3-34v-0.4c0-17.7-10.7-27.2-47.2-34.6
		C19,68,5.4,57.5,5.4,37.3v-0.4C5.4,16.7,25.1,0,52.4,0c19,0,35.9,6.4,49.1,16.5l-2.9,3.7C85.7,10.5,69.7,4.1,51.9,4.1
		c-25.4,0-42,15.7-42,32.6v0.4c0,17.5,11.1,26.8,46.6,34c37.5,7.6,49.9,19,49.9,38.5v0.4c0,21.4-18.8,38.3-49.3,38.3
		C35,148.4,15.5,140,0,125.3z"/>
	<path fill="#FFFFFF" d="M200.8,1h3.9l69.5,145.3h-4.9l-20.6-43.3h-91.9L136,146.3h-4.7L200.8,1z M246.5,98.9L202.6,7l-43.9,91.9
		H246.5z"/>
	<path fill="#FFFFFF" d="M301.8,2.1h99.8v4.1h-95.2v67h86.4v4.1h-86.4v69h-4.5V2.1z"/>
	<path fill="#FFFFFF" d="M425.6,2.1h100.8v4.1h-96.3v65.5h87.4v4.1h-87.4v66.4h97.3v4.1H425.6V2.1z"/>
	<path fill="#FFFFFF" d="M603.3,6.2h-52.1V2.1H660v4.1h-52.1v140.2h-4.5V6.2z"/>
	<path fill="#FFFFFF" d="M740.8,86l-61-83.9h5.4l58.1,80l57.5-80h5.4L745.3,86v60.4h-4.5V86z"/>
</g>
</svg>
