<?xml version="1.0" encoding="utf-8"?>
<!-- Generator: Adobe Illustrator 18.1.1, SVG Export Plug-In . SVG Version: 6.00 Build 0)  -->
<svg version="1.1" id="Layer_1" xmlns="http://www.w3.org/2000/svg" xmlns:xlink="http://www.w3.org/1999/xlink" x="0px" y="0px"
	 viewBox="0 0 793.1 46" enable-background="new 0 0 793.1 46" xml:space="preserve">
<g>
	<path fill="#FFFFFF" d="M0,0.8h1.5l19.3,42.9L40.1,0.8h1.5L21.3,45.6h-1.1L0,0.8z"/>
	<path fill="#FFFFFF" d="M45.9,23.1V23c0-12.1,8.6-23,22.1-23s22.1,10.8,22.1,23v0.1c0,12.1-8.6,23-22.1,23S45.9,35.2,45.9,23.1z
		 M88.8,23.1V23c0-11.4-8.4-21.8-20.8-21.8c-12.5,0-20.7,10.2-20.7,21.6V23c0,11.4,8.4,21.8,20.8,21.8
		C80.6,44.8,88.8,34.6,88.8,23.1z"/>
	<path fill="#FFFFFF" d="M110.5,2H94.4V0.8H128V2h-16.1v43.2h-1.4V2z"/>
	<path fill="#FFFFFF" d="M136.7,0.8h18.2c5.8,0,10,1.5,12.8,4.2c2,2,3.2,4.8,3.2,8.3v0.1c0,7.5-6,12-14.6,12.5l14.8,19.5h-1.7
		l-14.8-19.4h-16.5v19.4h-1.4V0.8z M154.2,24.6c10.3,0,15.3-4.9,15.3-11.2v-0.1C169.5,6.2,164,2,154.8,2h-16.7v22.6H154.2z"/>
	<path fill="#FFFFFF" d="M187,0.8h31.1V2h-29.7v20.2h27v1.3h-27V44h30v1.3H187V0.8z"/>
	<path fill="#FFFFFF" d="M255.4,0.8H271c10.9,0,17.1,5,17.1,13.4v0.1c0,8.6-6.6,13.5-17.4,13.5h-14v17.5h-1.4V0.8z M270.7,26.5
		c9.9,0,16-4.3,16-12.2v-0.1c0-7.6-5.9-12.1-15.8-12.1h-14.1v24.5H270.7z"/>
	<path fill="#FFFFFF" d="M298.3,0.8h18.2c5.8,0,10,1.5,12.8,4.2c2,2,3.2,4.8,3.2,8.3v0.1c0,7.5-6,12-14.6,12.5l14.8,19.5H331
		l-14.8-19.4h-16.5v19.4h-1.4V0.8z M315.8,24.6c10.3,0,15.3-4.9,15.3-11.2v-0.1c0-7.1-5.5-11.3-14.7-11.3h-16.7v22.6H315.8z"/>
	<path fill="#FFFFFF" d="M342.9,23.1V23c0-12.1,8.6-23,22.1-23s22.1,10.8,22.1,23v0.1c0,12.1-8.6,23-22.1,23S342.9,35.2,342.9,23.1z
		 M385.7,23.1V23c0-11.4-8.4-21.8-20.8-21.8c-12.5,0-20.7,10.2-20.7,21.6V23c0,11.4,8.4,21.8,20.8,21.8
		C377.5,44.8,385.7,34.6,385.7,23.1z"/>
	<path fill="#FFFFFF" d="M405.6,2h-16.1V0.8h33.6V2H407v43.2h-1.4V2z"/>
	<path fill="#FFFFFF" d="M431.9,0.8H463V2h-29.7v20.2h27v1.3h-27V44h30v1.3h-31.4V0.8z"/>
	<path fill="#FFFFFF" d="M474.6,23.1V23c0-12.5,9.2-23,21.9-23c8.4,0,12.8,3.1,16.9,7.1l-1,1c-3.6-3.4-8.1-6.7-16-6.7
		c-11.8,0-20.4,10-20.4,21.7v0.1c0,11.8,8.7,21.7,20.4,21.7c7.2,0,12.7-3.4,16.2-7.2l1,1c-3.9,4.1-9.5,7.6-17.3,7.6
		C483.9,46,474.6,35.7,474.6,23.1z"/>
	<path fill="#FFFFFF" d="M537.5,2h-16.1V0.8H555V2h-16.1v43.2h-1.4V2z"/>
	<path fill="#FFFFFF" d="M563.4,0.8h1.4v44.5h-1.4V0.8z"/>
	<path fill="#FFFFFF" d="M578.2,23.1V23c0-12.1,8.6-23,22.1-23c13.5,0,22.1,10.8,22.1,23v0.1c0,12.1-8.6,23-22.1,23
		C586.8,46,578.2,35.2,578.2,23.1z M621,23.1V23c0-11.4-8.4-21.8-20.8-21.8c-12.5,0-20.7,10.2-20.7,21.6V23
		c0,11.4,8.4,21.8,20.8,21.8C612.8,44.8,621,34.6,621,23.1z"/>
	<path fill="#FFFFFF" d="M634.5,0.8h1.2L669.5,43V0.8h1.3v44.5h-1.2L635.8,3.1v42.2h-1.3V0.8z"/>
	<path fill="#FFFFFF" d="M710.4,0.8h31.1V2h-29.7v20.2h27v1.3h-27V44h30v1.3h-31.4V0.8z"/>
	<path fill="#FFFFFF" d="M756.7,0.8h1.2L791.8,43V0.8h1.3v44.5h-1.2L758,3.1v42.2h-1.3V0.8z"/>
</g>
</svg>
