<?xml version="1.0" encoding="utf-8"?>
<svg version="1.1" id="Layer_1" x="0px" y="0px" viewBox="0 0 792 18.3" enable-background="new 0 0 792 18.3" xmlns="http://www.w3.org/2000/svg">
  <g>
    <path fill="#FFFFFF" d="M261.1,3.7h1.1V17h8.4v1h-9.4V3.7z"/>
    <path fill="#FFFFFF" d="M277,3.7h10.2v1H278v5.6h8.2v1H278V17h9.2v1H277V3.7z"/>
    <path fill="#FFFFFF" d="M 307.6 15.9 L 308.3 15.1 C 309.9 16.5 311.3 17.2 313.4 17.2 C 315.5 17.2 317 16 317 14.4 L 317 14.4 C 317 12.9 316.2 12 313 11.4 C 309.6 10.7 308.2 9.5 308.2 7.4 L 308.2 7.4 C 308.2 5.3 310.1 3.6 312.8 3.6 C 314.9 3.6 316.2 4.2 317.7 5.3 L 317 6.1 C 315.7 4.9 314.3 4.5 312.7 4.5 C 310.6 4.5 309.2 5.7 309.2 7.2 L 309.2 7.2 C 309.2 8.7 310 9.6 313.4 10.3 C 316.7 11 318.1 12.2 318.1 14.2 L 318.1 14.2 C 318.1 16.5 316.1 18.1 313.4 18.1 C 311.1 18.2 309.3 17.5 307.6 15.9 Z"/>
    <path fill="#FFFFFF" d="M 327.1 3.7 L 337.3 3.7 L 337.3 4.7 L 328.2 4.7 L 328.2 10.3 L 336.4 10.3 L 336.4 11.3 L 328.2 11.3 L 328.2 17 L 337.4 17 L 337.4 18 L 327.1 18 L 327.1 3.7 Z"/>
    <path fill="#FFFFFF" d="M 345.3 15.9 L 346 15.1 C 347.6 16.5 349 17.2 351.1 17.2 C 353.2 17.2 354.7 16 354.7 14.4 L 354.7 14.4 C 354.7 12.9 353.9 12 350.7 11.4 C 347.3 10.7 345.9 9.5 345.9 7.4 L 345.9 7.4 C 345.9 5.3 347.8 3.6 350.5 3.6 C 352.6 3.6 353.9 4.2 355.4 5.3 L 354.7 6.1 C 353.4 4.9 352 4.5 350.4 4.5 C 348.3 4.5 346.9 5.7 346.9 7.2 L 346.9 7.2 C 346.9 8.7 347.7 9.6 351.1 10.3 C 354.4 11 355.8 12.2 355.8 14.2 L 355.8 14.2 C 355.8 16.5 353.8 18.1 351.1 18.1 C 348.8 18.2 347 17.5 345.3 15.9 Z"/>
    <path fill="#FFFFFF" d="M390.7,3.7h5.2c3.1,0,5.3,1.6,5.3,4.4v0c0,3-2.6,4.5-5.6,4.5h-3.9V18h-1.1V3.7z M395.7,11.7&#10;&#9;&#9;c2.7,0,4.4-1.4,4.4-3.5v0c0-2.3-1.8-3.4-4.3-3.4h-4v7H395.7z"/>
    <path fill="#FFFFFF" d="M408.5,3.7h6c1.8,0,3.2,0.6,4,1.4c0.7,0.7,1.1,1.6,1.1,2.7v0c0,2.4-1.8,3.8-4.2,4.1l4.7,6.1h-1.3l-4.5-5.9&#10;&#9;&#9;h-4.7V18h-1.1V3.7z M414.4,11.1c2.4,0,4.2-1.2,4.2-3.3v0c0-1.9-1.5-3.1-4.1-3.1h-4.9v6.4H414.4z"/>
    <path fill="#FFFFFF" d="M428.7,3.7h10.2v1h-9.1v5.6h8.2v1h-8.2V17h9.2v1h-10.3V3.7z M435.3,0l1.2,0.6l-2.2,1.8h-0.9L435.3,0z"/>
    <path fill="#FFFFFF" d="M447,15.9l0.7-0.8c1.6,1.4,3,2.1,5.1,2.1c2.1,0,3.6-1.2,3.6-2.8v0c0-1.5-0.8-2.4-4-3&#10;&#9;&#9;c-3.4-0.7-4.8-1.9-4.8-4v0c0-2.1,1.9-3.8,4.6-3.8c2.1,0,3.4,0.6,4.9,1.7l-0.7,0.8c-1.3-1.2-2.7-1.6-4.3-1.6c-2.1,0-3.5,1.2-3.5,2.7&#10;&#9;&#9;v0c0,1.5,0.8,2.4,4.2,3.1c3.3,0.7,4.7,1.9,4.7,3.9v0c0,2.3-2,3.9-4.7,3.9C450.5,18.2,448.7,17.5,447,15.9z"/>
    <path fill="#FFFFFF" d="M466.5,3.7h10.2v1h-9.1v5.6h8.2v1h-8.2V17h9.2v1h-10.3V3.7z"/>
    <path fill="#FFFFFF" d="M485.7,3.7h1l9.9,12.4V3.7h1V18h-0.8L486.7,5.3V18h-1V3.7z"/>
    <path fill="#FFFFFF" d="M508.2,4.7h-5v-1h11v1h-5V18h-1.1V4.7z"/>
    <path fill="#FFFFFF" d="M519.7,3.7h10.2v1h-9.1v5.6h8.2v1h-8.2V17h9.2v1h-10.3V3.7z"/>
    <g transform="matrix(0.795494, 0, 0, 0.795494, 361.431458, 4.173787)">
      <path class="st0" d="M0,14l1-0.7c1,1.8,2.2,2.7,4.2,2.7c2.1,0,3.7-1.6,3.7-4.5V0h1.3v11.4c0,2-0.6,3.5-1.5,4.4&#10;&#9;&#9;c-0.9,0.9-2.1,1.4-3.5,1.4C2.6,17.2,1,15.9,0,14z" style="fill: rgb(255, 255, 255);"/>
    </g>
  </g>
  <line fill="none" stroke="#FFFFFF" stroke-miterlimit="10" x1="0" y1="11.2" x2="237" y2="11.2"/>
  <line fill="none" stroke="#FFFFFF" stroke-miterlimit="10" x1="555" y1="11.2" x2="792" y2="11.2"/>
</svg>