<svg version="1.1" id="usge_svg" x="0px" y="0px" viewBox="-28.4 -16.075 624.8 353.65" width="100%" height="100%" xmlns="http://www.w3.org/2000/svg">
  <rect x="-27.63" y="-16.46" width="623.703" height="354.035"/>
  <filter id="blur" x="-50%" width="200%" y="-50%" height="200%">
    <feGaussianBlur in="SourceGraphic" stdDeviation="4"/>
  </filter>
  <g fill="none" stroke-width="10.46" stroke-miterlimit="10">
    <g stroke="#272727">
      <path id="usge_svg_10" d="M122.5,1.7v205.6c0,46.1-40.2,55.3-58.6,55.3 c-18.5,0-58.6-9.3-58.6-55.3V1.7"/>
      <path id="usge_svg_11" d="M23.6,1.1v205.6c0,31.6,27.6,38,40.3,38 c12.7,0,40.3-6.4,40.3-38V1.7"/>
      <path id="usge_svg_20" d="M178.5,179.2v27.6c0,31.6,27.6,38,40.3,38 s40.3-6.4,40.3-38c0-52-99.6-80.3-99.6-146.2c0-46.1,40.2-55.3,58.6-55.3c18.5,0,58.6,9.3,58.6,55.3v28.1"/>
      <path id="usge_svg_21" d="M257.6,88.6V61c0-31.6-27.6-38-40.3-38 c-12.7,0-40.3,6.4-40.3,38c0,52,99.6,80.3,99.6,146.2c0,46.1-40.2,55.3-58.6,55.3c-18.5,0-58.6-9.3-58.6-55.3v-28.1"/>
      <path id="usge_svg_30" d="M 429.814 1.85 L 429.814 209.641 C 429.814 255.467 389.936 264.562 371.396 264.562 C 352.855 264.562 312.977 255.467 312.977 209.641"/>
      <path id="usge_svg_31" d="M 331.515 209.291 C 331.515 240.775 358.802 247.071 371.744 247.071 C 384.688 247.071 411.974 240.775 411.974 209.291 L 411.974 1.85"/>
      <polyline id="usge_svg_40" points="566.8,6.9 468.2,6.9 469.4,260.1 568,260.1 "/>
      <polyline id="usge_svg_41" points="568,241.9 487.8,241.9 487.8,143.4 540.6,143.4 "/>
      <polyline id="usge_svg_42" points="566.8,25.1 486.6,25.1 486.6,123.6 539.4,123.6 "/>
    </g>
    <g stroke="white" filter="url(#blur)">
      <path id="usge_svg_10b" d="M122.5,1.7v205.6c0,46.1-40.2,55.3-58.6,55.3 c-18.5,0-58.6-9.3-58.6-55.3V1.7"/>
      <path id="usge_svg_11b" d="M23.6,1.1v205.6c0,31.6,27.6,38,40.3,38 c12.7,0,40.3-6.4,40.3-38V1.7"/>
      <path id="usge_svg_20b" d="M178.5,179.2v27.6c0,31.6,27.6,38,40.3,38 s40.3-6.4,40.3-38c0-52-99.6-80.3-99.6-146.2c0-46.1,40.2-55.3,58.6-55.3c18.5,0,58.6,9.3,58.6,55.3v28.1"/>
      <path id="usge_svg_21b" d="M257.6,88.6V61c0-31.6-27.6-38-40.3-38 c-12.7,0-40.3,6.4-40.3,38c0,52,99.6,80.3,99.6,146.2c0,46.1-40.2,55.3-58.6,55.3c-18.5,0-58.6-9.3-58.6-55.3v-28.1"/>
      <path id="usge_svg_30b" d="M 429.814 1.85 L 429.814 209.641 C 429.814 255.467 389.936 264.562 371.396 264.562 C 352.855 264.562 312.977 255.467 312.977 209.641"/>
      <path id="usge_svg_31b" d="M 331.515 209.291 C 331.515 240.775 358.802 247.071 371.744 247.071 C 384.688 247.071 411.974 240.775 411.974 209.291 L 411.974 1.85"/>
      <polyline id="usge_svg_40b" points="566.8,6.9 468.2,6.9 469.4,260.1 568,260.1 "/>
      <polyline id="usge_svg_41b" points="568,241.9 487.8,241.9 487.8,143.4 540.6,143.4 "/>
      <polyline id="usge_svg_42b" points="566.8,25.1 486.6,25.1 486.6,123.6 539.4,123.6 "/>
    </g>
    <g stroke="white">
      <path id="usge_svg_10w" d="M122.5,1.7v205.6c0,46.1-40.2,55.3-58.6,55.3 c-18.5,0-58.6-9.3-58.6-55.3V1.7"/>
      <path id="usge_svg_11w" d="M23.6,1.1v205.6c0,31.6,27.6,38,40.3,38 c12.7,0,40.3-6.4,40.3-38V1.7"/>
      <path id="usge_svg_20w" d="M178.5,179.2v27.6c0,31.6,27.6,38,40.3,38 s40.3-6.4,40.3-38c0-52-99.6-80.3-99.6-146.2c0-46.1,40.2-55.3,58.6-55.3c18.5,0,58.6,9.3,58.6,55.3v28.1"/>
      <path id="usge_svg_21w" d="M257.6,88.6V61c0-31.6-27.6-38-40.3-38 c-12.7,0-40.3,6.4-40.3,38c0,52,99.6,80.3,99.6,146.2c0,46.1-40.2,55.3-58.6,55.3c-18.5,0-58.6-9.3-58.6-55.3v-28.1"/>
      <path id="usge_svg_30w" d="M 429.814 1.85 L 429.814 209.641 C 429.814 255.467 389.936 264.562 371.396 264.562 C 352.855 264.562 312.977 255.467 312.977 209.641"/>
      <path id="usge_svg_31w" d="M 331.515 209.291 C 331.515 240.775 358.802 247.071 371.744 247.071 C 384.688 247.071 411.974 240.775 411.974 209.291 L 411.974 1.85"/>
      <polyline id="usge_svg_40w" points="566.8,6.9 468.2,6.9 469.4,260.1 568,260.1 "/>
      <polyline id="usge_svg_41w" points="568,241.9 487.8,241.9 487.8,143.4 540.6,143.4 "/>
      <polyline id="usge_svg_42w" points="566.8,25.1 486.6,25.1 486.6,123.6 539.4,123.6 "/>
    </g>
  </g>
  <g fill="white">
    <g id="usge_svg_union">
      <path d="M26.5,315.7v-14.1h2.7V316c0,2,0.8,3,1.9,3c1.2,0,2-0.9,2-3v-14.3h2.7v14.1c0,3.9-1.9,5.8-4.7,5.8&#10;&#9;&#9;&#9;&#9;S26.5,319.6,26.5,315.7z"/>
      <path d="M38.3,301.6h2.6l4.3,11.9v-11.9h2.7v19.6h-2.5L41,308.9v12.3h-2.7V301.6z"/>
      <path d="M50.5,301.6h2.7v19.6h-2.7V301.6z"/>
      <path d="M55.5,311.8V311c0-6.6,2.1-9.6,5-9.6c3,0,5,3,5,9.6v0.8c0,6.6-2.1,9.6-5,9.6&#10;&#9;&#9;&#9;&#9;C57.5,321.5,55.5,318.5,55.5,311.8z M62.7,311.8V311c0-5.1-0.9-7.1-2.2-7.1c-1.3,0-2.2,2-2.2,7.1v0.8c0,5.1,0.9,7.1,2.2,7.1&#10;&#9;&#9;&#9;&#9;C61.8,319,62.7,316.9,62.7,311.8z"/>
      <path d="M67.7,301.6h2.6l4.3,11.9v-11.9h2.7v19.6h-2.5l-4.4-12.3v12.3h-2.7V301.6z"/>
      <path d="M84,311.8V311c0-6.6,2.1-9.6,5-9.6c3,0,5,3,5,9.6v0.8c0,6.6-2.1,9.6-5,9.6C86.1,321.5,84,318.5,84,311.8z&#10;&#9;&#9;&#9;&#9; M91.3,311.8V311c0-5.1-0.9-7.1-2.2-7.1s-2.2,2-2.2,7.1v0.8c0,5.1,0.9,7.1,2.2,7.1S91.3,316.9,91.3,311.8z"/>
      <path d="M95.6,301.6h6.9v2.6h-4.1v6h3.7v2.6h-3.7v8.4h-2.8V301.6z"/>
    </g>
    <g id="usge_svg_solicitor" transform="matrix(1, 0, 0, 1, -26.013607, 3.416908)">
      <path class="st0" d="M 216.379 316.092 L 216.379 313.292 C 217.579 313.992 218.579 314.392 219.479 314.392 C 220.579 314.392 221.479 313.792 221.479 312.492 L 221.479 312.392 C 221.479 311.292 221.079 310.492 219.379 308.492 C 216.979 305.692 216.179 304.492 216.179 302.392 L 216.179 302.292 C 216.179 299.492 218.079 297.692 220.479 297.692 C 221.779 297.692 222.579 297.892 223.379 298.392 L 223.379 301.192 C 222.379 300.592 221.579 300.292 220.779 300.292 C 219.679 300.292 218.879 300.992 218.879 302.192 L 218.879 302.292 C 218.879 303.392 219.279 303.892 220.979 305.992 C 223.479 308.992 224.179 310.192 224.179 312.392 L 224.179 312.492 C 224.179 315.292 222.179 317.092 219.779 317.092 C 218.379 316.992 217.379 316.592 216.379 316.092 Z" style="fill: rgb(255, 255, 255);"/>
      <path class="st0" d="M 228.479 297.792 L 231.279 297.792 L 235.079 316.692 L 232.379 316.692 L 231.579 312.492 L 227.979 312.492 L 227.179 316.692 L 224.679 316.692 L 228.479 297.792 Z M 231.179 310.192 L 229.779 302.592 L 228.379 310.192 L 231.179 310.192 Z" style="fill: rgb(255, 255, 255);"/>
      <path class="st0" d="M 236.479 297.892 L 243.179 297.892 L 243.179 300.392 L 239.179 300.392 L 239.179 306.192 L 242.679 306.192 L 242.679 308.692 L 239.179 308.692 L 239.179 316.792 L 236.479 316.792 L 236.479 297.892 Z" style="fill: rgb(255, 255, 255);"/>
      <path class="st0" d="M 244.779 297.892 L 251.779 297.892 L 251.779 300.392 L 247.479 300.392 L 247.479 305.992 L 251.379 305.992 L 251.379 308.492 L 247.479 308.492 L 247.479 314.192 L 251.879 314.192 L 251.879 316.692 L 244.779 316.692 L 244.779 297.892 Z" style="fill: rgb(255, 255, 255);"/>
      <path class="st0" d="M 255.479 300.392 L 252.879 300.392 L 252.879 297.892 L 260.579 297.892 L 260.579 300.392 L 258.079 300.392 L 258.079 316.792 L 255.479 316.792 L 255.479 300.392 Z" style="fill: rgb(255, 255, 255);"/>
      <path class="st0" d="M 264.479 309.092 L 260.879 297.892 L 263.679 297.892 L 265.879 305.592 L 268.179 297.892 L 270.879 297.892 L 267.179 309.092 L 267.179 316.792 L 264.479 316.792 L 264.479 309.092 Z" style="fill: rgb(255, 255, 255);"/>
    </g>
    <g id="usge_svg_general" transform="matrix(1.023853, 0, 0, 1.023853, -20.70211, 140.056061)">
      <path class="st0" d="M 340.063 156.845 L 342.863 156.845 L 346.663 175.745 L 343.963 175.745 L 343.163 171.545 L 339.563 171.545 L 338.763 175.745 L 336.263 175.745 L 340.063 156.845 Z M 342.763 169.245 L 341.363 161.645 L 339.963 169.245 L 342.763 169.245 Z" style="fill: rgb(255, 255, 255);"/>
      <path class="st0" d="M 347.963 156.945 L 350.463 156.945 L 354.563 168.345 L 354.563 156.945 L 357.263 156.945 L 357.263 175.845 L 354.863 175.845 L 350.563 163.945 L 350.563 175.845 L 347.963 175.845 L 347.963 156.945 Z" style="fill: rgb(255, 255, 255);"/>
      <path class="st0" d="M 359.463 156.945 L 362.263 156.945 C 366.263 156.945 368.663 160.045 368.663 166.145 L 368.663 166.745 C 368.663 172.845 366.263 175.945 362.263 175.945 L 359.463 175.945 L 359.463 156.945 Z M 362.563 173.445 C 364.463 173.445 366.063 171.645 366.063 166.745 L 366.063 166.045 C 366.063 161.145 364.463 159.345 362.563 159.345 L 362.163 159.345 L 362.163 173.345 L 362.563 173.345 Z" style="fill: rgb(255, 255, 255);"/>
      <path class="st0" d="M 374.363 175.745 L 374.363 173.145 C 374.763 173.345 375.463 173.445 375.863 173.445 C 376.963 173.445 377.663 172.845 377.663 171.445 L 377.663 156.945 L 380.263 156.945 L 380.263 171.545 C 380.263 174.545 378.663 176.045 376.163 176.045 C 375.463 175.945 374.863 175.845 374.363 175.745 Z" style="fill: rgb(255, 255, 255);"/>
      <path class="st0" d="M 382.363 170.545 L 382.363 156.945 L 384.963 156.945 L 384.963 170.745 C 384.963 172.745 385.763 173.645 386.863 173.645 C 387.963 173.645 388.763 172.745 388.763 170.745 L 388.763 156.945 L 391.363 156.945 L 391.363 170.545 C 391.363 174.245 389.463 176.145 386.863 176.145 C 384.263 176.045 382.363 174.245 382.363 170.545 Z" style="fill: rgb(255, 255, 255);"/>
      <path class="st0" d="M 393.163 175.145 L 393.163 172.345 C 394.363 173.045 395.363 173.445 396.263 173.445 C 397.363 173.445 398.263 172.845 398.263 171.545 L 398.263 171.445 C 398.263 170.345 397.863 169.545 396.163 167.545 C 393.863 164.745 392.963 163.545 392.963 161.445 L 392.963 161.345 C 392.963 158.545 394.863 156.745 397.263 156.745 C 398.563 156.745 399.363 156.945 400.163 157.445 L 400.163 160.245 C 399.163 159.645 398.363 159.345 397.563 159.345 C 396.463 159.345 395.663 160.045 395.663 161.245 L 395.663 161.345 C 395.663 162.445 396.063 162.945 397.763 165.045 C 400.263 168.045 400.963 169.245 400.963 171.445 L 400.963 171.545 C 400.963 174.345 398.963 176.145 396.563 176.145 C 395.263 176.045 394.163 175.645 393.163 175.145 Z" style="fill: rgb(255, 255, 255);"/>
      <path class="st0" d="M 403.863 159.445 L 401.263 159.445 L 401.263 156.945 L 408.963 156.945 L 408.963 159.445 L 406.463 159.445 L 406.463 175.845 L 403.863 175.845 L 403.863 159.445 Z" style="fill: rgb(255, 255, 255);"/>
      <path class="st0" d="M 410.663 156.945 L 413.263 156.945 L 413.263 175.845 L 410.663 175.845 L 410.663 156.945 Z" style="fill: rgb(255, 255, 255);"/>
      <path class="st0" d="M 415.363 166.645 L 415.363 166.045 C 415.363 159.545 417.763 156.745 420.763 156.745 C 421.663 156.745 422.163 156.845 422.863 157.245 L 422.863 160.045 C 422.163 159.645 421.663 159.445 421.063 159.445 C 419.463 159.445 418.163 161.245 418.163 166.145 L 418.163 166.745 C 418.163 171.845 419.463 173.445 421.063 173.445 C 421.663 173.445 422.263 173.245 422.963 172.845 L 422.963 175.445 C 422.263 175.845 421.563 176.045 420.663 176.045 C 417.563 175.945 415.363 173.145 415.363 166.645 Z" style="fill: rgb(255, 255, 255);"/>
      <path class="st0" d="M 424.763 156.945 L 431.763 156.945 L 431.763 159.445 L 427.463 159.445 L 427.463 165.045 L 431.263 165.045 L 431.263 167.545 L 427.363 167.545 L 427.363 173.245 L 431.763 173.245 L 431.763 175.745 L 424.663 175.745 L 424.663 156.945 Z" style="fill: rgb(255, 255, 255);"/>
    </g>
    <g id="usge_svg_employees">
      <path d="M472.8,301.6h7.3v2.6h-4.5v5.8h4v2.6h-4v6h4.6v2.6h-7.3V301.6z"/>
      <path d="M482.1,301.6h2.8l2.8,8.3l2.8-8.3h2.8v19.6h-2.7v-13.4l-2.9,8.6h-0.1l-2.9-8.6v13.4h-2.6V301.6z"/>
      <path d="M495.9,301.6h2.9c3.7,0,6.1,2.1,6.1,6.5v0.1c0,4.2-2.4,6.4-5.9,6.6h-0.3v6.5h-2.8V301.6z M499,312.2&#10;&#9;&#9;&#9;&#9;c1.8-0.1,3.1-1.4,3.1-4v-0.1c0-2.7-1.2-4-3-4h-0.4v8H499z"/>
      <path d="M505.8,301.6h2.8v17h4v2.6h-6.8V301.6z"/>
      <path d="M512.7,311.8V311c0-6.6,2.1-9.6,5-9.6c3,0,5,3,5,9.6v0.8c0,6.6-2.1,9.6-5,9.6&#10;&#9;&#9;&#9;&#9;C514.8,321.5,512.7,318.5,512.7,311.8z M520,311.8V311c0-5.1-0.9-7.1-2.2-7.1c-1.3,0-2.2,2-2.2,7.1v0.8c0,5.1,0.9,7.1,2.2,7.1&#10;&#9;&#9;&#9;&#9;C519.1,319,520,316.9,520,311.8z"/>
      <path d="M526,313.3l-3.8-11.6h2.9l2.3,8l2.4-8h2.8l-3.8,11.6v8H526V313.3z"/>
      <path d="M533.3,301.6h7.3v2.6h-4.5v5.8h4v2.6h-4v6h4.6v2.6h-7.3V301.6z"/>
      <path d="M542.7,301.6h7.3v2.6h-4.5v5.8h4v2.6h-4v6h4.6v2.6h-7.3V301.6z"/>
      <path d="M551.5,320.5v-2.9c1.2,0.8,2.2,1.1,3.2,1.1c1.2,0,2.1-0.7,2.1-2v-0.1c0-1.1-0.4-1.9-2.2-4.1&#10;&#9;&#9;&#9;&#9;c-2.4-2.9-3.3-4.1-3.3-6.3v-0.1c0-2.9,2-4.8,4.5-4.8c1.3,0,2.2,0.3,3,0.7v2.9c-1.1-0.6-1.8-1-2.7-1c-1.1,0-2,0.8-2,2v0.1&#10;&#9;&#9;&#9;&#9;c0,1.1,0.4,1.7,2.2,3.8c2.6,3.1,3.3,4.4,3.3,6.6v0.1c0,2.9-2,4.8-4.6,4.8C553.7,321.4,552.6,321.1,551.5,320.5z"/>
    </g>
    <g transform="matrix(1, 0, 0, 1, 216.17894209389124, 297.6923005588597)"/>
  </g>
</svg>