<svg version="1.1" id="usge_svg" x="0px" y="0px" viewBox="-28.74 -15.66 632.28 344.52" width="100%" height="100%" xmlns="http://www.w3.org/2000/svg">
  <filter id="blur" x="-50%" width="200%" y="-50%" height="200%">
    <feGaussianBlur in="SourceGraphic" stdDeviation="4"/>
  </filter>
  <rect x="-28.162" y="-16.241" width="631.476" height="344.042"/>
  <g fill="none" stroke-width="10.503" stroke-miterlimit="10">
    <g stroke="#272727">
      <path id="usge_svg_10" d="M24.3,179.2v27.6c0,31.6,27.6,38,40.3,38 c12.7,0,40.3-6.4,40.3-38c0-52-99.6-80.3-99.6-146.2c0-46.1,40.2-55.3,58.6-55.3c18.5,0,58.6,9.3,58.6,55.3v28.1"/>
      <path id="usge_svg_11" d="M103.4,88.6V61c0-31.6-27.6-38-40.3-38 c-12.7,0-40.3,6.4-40.3,38c0,52,99.6,80.3,99.6,146.2c0,46.1-40.2,55.3-58.6,55.3c-18.5,0-58.6-9.3-58.6-55.3v-28.1"/>
      <polyline id="usge_svg_20" points="263.4,241.9 183.1,241.9 183.1,143.4 235.9,143.4 "/>
      <polyline id="usge_svg_21" points="262.2,6.9 163.6,6.9 164.8,260.1 263.4,260.1 "/>
      <polyline id="usge_svg_22" points="262.2,25.1 182,25.1 182,123.6 234.8,123.6 "/>
      <path id="usge_svg_30" d="M312.6,179.2v27.6c0,31.6,27.6,38,40.3,38 c12.7,0,40.3-6.4,40.3-38c0-52-99.6-80.3-99.6-146.2c0-46.1,40.2-55.3,58.6-55.3c18.5,0,58.6,9.3,58.6,55.3v28.1"/>
      <path id="usge_svg_31" d="M391.7,88.6V61c0-31.6-27.6-38-40.3-38 c-12.7,0-40.3,6.4-40.3,38c0,52,99.6,80.3,99.6,146.2c0,46.1-40.2,55.3-58.6,55.3c-18.5,0-58.6-9.3-58.6-55.3v-28.1"/>
      <path id="usge_svg_40" d="M 570.399 1.557 L 570.399 211.014 C 570.399 257.797 529.603 267.133 510.93 267.133 C 492.157 267.133 451.463 257.695 451.463 211.014"/>
      <path id="usge_svg_41" d="M 470.033 210.506 C 470.033 242.575 498.043 249.069 510.93 249.069 C 523.819 249.069 551.827 242.575 551.827 210.506 L 551.827 1.557"/>
    </g>
    <g stroke="white" filter="url(#blur)">
      <path id="usge_svg_10b" d="M24.3,179.2v27.6c0,31.6,27.6,38,40.3,38 c12.7,0,40.3-6.4,40.3-38c0-52-99.6-80.3-99.6-146.2c0-46.1,40.2-55.3,58.6-55.3c18.5,0,58.6,9.3,58.6,55.3v28.1"/>
      <path id="usge_svg_11b" d="M103.4,88.6V61c0-31.6-27.6-38-40.3-38 c-12.7,0-40.3,6.4-40.3,38c0,52,99.6,80.3,99.6,146.2c0,46.1-40.2,55.3-58.6,55.3c-18.5,0-58.6-9.3-58.6-55.3v-28.1"/>
      <polyline id="usge_svg_20b" points="263.4,241.9 183.1,241.9 183.1,143.4 235.9,143.4 "/>
      <polyline id="usge_svg_21b" points="262.2,6.9 163.6,6.9 164.8,260.1 263.4,260.1 "/>
      <polyline id="usge_svg_22b" points="262.2,25.1 182,25.1 182,123.6 234.8,123.6 "/>
      <path id="usge_svg_30b" d="M312.6,179.2v27.6c0,31.6,27.6,38,40.3,38 c12.7,0,40.3-6.4,40.3-38c0-52-99.6-80.3-99.6-146.2c0-46.1,40.2-55.3,58.6-55.3c18.5,0,58.6,9.3,58.6,55.3v28.1"/>
      <path id="usge_svg_31b" d="M391.7,88.6V61c0-31.6-27.6-38-40.3-38 c-12.7,0-40.3,6.4-40.3,38c0,52,99.6,80.3,99.6,146.2c0,46.1-40.2,55.3-58.6,55.3c-18.5,0-58.6-9.3-58.6-55.3v-28.1"/>
      <path id="usge_svg_40b" d="M 570.399 1.557 L 570.399 211.014 C 570.399 257.797 529.603 267.133 510.93 267.133 C 492.157 267.133 451.463 257.695 451.463 211.014"/>
      <path id="usge_svg_41b" d="M 470.033 210.506 C 470.033 242.575 498.043 249.069 510.93 249.069 C 523.819 249.069 551.827 242.575 551.827 210.506 L 551.827 1.557"/>
    </g>
    <g stroke="white">
      <path id="usge_svg_10w" d="M24.3,179.2v27.6c0,31.6,27.6,38,40.3,38 c12.7,0,40.3-6.4,40.3-38c0-52-99.6-80.3-99.6-146.2c0-46.1,40.2-55.3,58.6-55.3c18.5,0,58.6,9.3,58.6,55.3v28.1"/>
      <path id="usge_svg_11w" d="M103.4,88.6V61c0-31.6-27.6-38-40.3-38 c-12.7,0-40.3,6.4-40.3,38c0,52,99.6,80.3,99.6,146.2c0,46.1-40.2,55.3-58.6,55.3c-18.5,0-58.6-9.3-58.6-55.3v-28.1"/>
      <polyline id="usge_svg_20w" points="263.4,241.9 183.1,241.9 183.1,143.4 235.9,143.4 "/>
      <polyline id="usge_svg_21w" points="262.2,6.9 163.6,6.9 164.8,260.1 263.4,260.1 "/>
      <polyline id="usge_svg_22w" points="262.2,25.1 182,25.1 182,123.6 234.8,123.6 "/>
      <path id="usge_svg_30w" d="M312.6,179.2v27.6c0,31.6,27.6,38,40.3,38 c12.7,0,40.3-6.4,40.3-38c0-52-99.6-80.3-99.6-146.2c0-46.1,40.2-55.3,58.6-55.3c18.5,0,58.6,9.3,58.6,55.3v28.1"/>
      <path id="usge_svg_31w" d="M391.7,88.6V61c0-31.6-27.6-38-40.3-38 c-12.7,0-40.3,6.4-40.3,38c0,52,99.6,80.3,99.6,146.2c0,46.1-40.2,55.3-58.6,55.3c-18.5,0-58.6-9.3-58.6-55.3v-28.1"/>
      <path id="usge_svg_40w" d="M 570.399 1.557 L 570.399 211.014 C 570.399 257.797 529.603 267.133 510.93 267.133 C 492.157 267.133 451.463 257.695 451.463 211.014"/>
      <path id="usge_svg_41w" d="M 470.033 210.506 C 470.033 242.575 498.043 249.069 510.93 249.069 C 523.819 249.069 551.827 242.575 551.827 210.506 L 551.827 1.557"/>
    </g>
  </g>
  <g fill="white">
    <g id="usge_svg_union">
      <path class="st0" d="M 24.382 311.732 L 24.382 309.632 C 25.282 310.132 25.982 310.432 26.682 310.432 C 27.482 310.432 28.182 309.932 28.182 309.032 L 28.182 309.032 C 28.182 308.232 27.882 307.632 26.682 306.132 C 24.882 304.032 24.282 303.132 24.282 301.632 L 24.282 301.632 C 24.282 299.532 25.682 298.132 27.482 298.132 C 28.382 298.132 28.982 298.332 29.682 298.632 L 29.682 300.732 C 28.882 300.232 28.382 300.032 27.682 300.032 C 26.882 300.032 26.282 300.532 26.282 301.432 L 26.282 301.432 C 26.282 302.232 26.582 302.632 27.782 304.132 C 29.682 306.332 30.082 307.232 30.082 308.832 L 30.082 308.832 C 30.082 310.932 28.582 312.232 26.782 312.232 C 25.982 312.432 25.182 312.132 24.382 311.732 Z" style="fill: rgb(255, 255, 255);"/>
      <path class="st0" d="M 32.882 306.632 L 30.182 298.232 L 32.282 298.232 L 33.882 303.932 L 35.582 298.232 L 37.582 298.232 L 34.882 306.532 L 34.882 312.232 L 32.882 312.232 L 32.882 306.632 Z" style="fill: rgb(255, 255, 255);"/>
      <path class="st0" d="M 38.482 298.232 L 40.282 298.232 L 43.282 306.732 L 43.282 298.232 L 45.282 298.232 L 45.282 312.232 L 43.482 312.232 L 40.382 303.432 L 40.382 312.232 L 38.482 312.232 L 38.482 298.232 Z" style="fill: rgb(255, 255, 255);"/>
      <path class="st0" d="M 46.982 298.232 L 49.082 298.232 C 52.082 298.232 53.882 300.532 53.882 305.032 L 53.882 305.432 C 53.882 309.932 52.082 312.232 49.082 312.232 L 46.982 312.232 L 46.982 298.232 Z M 49.282 310.432 C 50.682 310.432 51.882 309.132 51.882 305.432 L 51.882 305.032 C 51.882 301.432 50.682 300.032 49.282 300.032 L 48.982 300.032 L 48.982 310.432 L 49.282 310.432 Z" style="fill: rgb(255, 255, 255);"/>
      <path class="st0" d="M 55.282 298.232 L 57.282 298.232 L 57.282 312.232 L 55.282 312.232 L 55.282 298.232 Z" style="fill: rgb(255, 255, 255);"/>
      <path class="st0" d="M 58.782 305.532 L 58.782 305.032 C 58.782 300.232 60.582 298.132 62.782 298.132 C 63.482 298.132 63.782 298.232 64.282 298.432 L 64.282 300.432 C 63.782 300.232 63.382 300.132 62.882 300.132 C 61.682 300.132 60.682 301.432 60.682 305.032 L 60.682 305.532 C 60.682 309.332 61.582 310.432 62.882 310.432 C 63.282 310.432 63.782 310.332 64.282 310.032 L 64.282 311.932 C 63.782 312.232 63.282 312.332 62.582 312.332 C 60.382 312.332 58.782 310.332 58.782 305.532 Z" style="fill: rgb(255, 255, 255);"/>
      <path class="st0" d="M 67.782 298.232 L 69.882 298.232 L 72.682 312.232 L 70.682 312.232 L 70.182 309.132 L 67.582 309.132 L 66.982 312.232 L 65.082 312.232 L 67.782 298.232 Z M 69.882 307.332 L 68.882 301.732 L 67.882 307.332 L 69.882 307.332 Z" style="fill: rgb(255, 255, 255);"/>
      <path class="st0" d="M 74.382 300.132 L 72.482 300.132 L 72.482 298.232 L 78.182 298.232 L 78.182 300.132 L 76.282 300.132 L 76.282 312.232 L 74.282 312.232 L 74.282 300.132 Z" style="fill: rgb(255, 255, 255);"/>
      <path class="st0" d="M 82.582 298.232 L 84.682 298.232 C 87.682 298.232 89.482 300.532 89.482 305.032 L 89.482 305.432 C 89.482 309.932 87.682 312.232 84.682 312.232 L 82.582 312.232 L 82.582 298.232 Z M 84.882 310.432 C 86.282 310.432 87.482 309.132 87.482 305.432 L 87.482 305.032 C 87.482 301.432 86.282 300.032 84.882 300.032 L 84.582 300.032 L 84.582 310.432 L 84.882 310.432 Z" style="fill: rgb(255, 255, 255);"/>
      <path class="st0" d="M 90.882 298.232 L 96.082 298.232 L 96.082 300.132 L 92.882 300.132 L 92.882 304.332 L 95.782 304.332 L 95.782 306.132 L 92.882 306.132 L 92.882 310.432 L 96.182 310.432 L 96.182 312.332 L 90.982 312.332 L 90.982 298.232 Z" style="fill: rgb(255, 255, 255);"/>
      <path class="st0" d="M 97.082 311.732 L 97.082 309.632 C 97.982 310.132 98.682 310.432 99.382 310.432 C 100.182 310.432 100.882 309.932 100.882 309.032 L 100.882 309.032 C 100.882 308.232 100.582 307.632 99.382 306.132 C 97.682 304.032 97.082 303.232 97.082 301.632 L 97.082 301.632 C 97.082 299.532 98.482 298.232 100.282 298.232 C 101.182 298.232 101.782 298.432 102.482 298.732 L 102.482 300.832 C 101.682 300.332 101.182 300.132 100.582 300.132 C 99.782 300.132 99.182 300.632 99.182 301.532 L 99.182 301.532 C 99.182 302.332 99.482 302.732 100.682 304.232 C 102.582 306.432 102.982 307.332 102.982 308.932 L 102.982 308.932 C 102.982 311.032 101.482 312.332 99.682 312.332 C 98.582 312.432 97.782 312.132 97.082 311.732 Z" style="fill: rgb(255, 255, 255);"/>
    </g>
    <g id="usge_svg_solicitor" transform="matrix(1, 0, 0, 1, -1, 0)">
      <path class="st0" d="M 156.408 298.517 L 161.608 298.517 L 161.608 300.417 L 158.408 300.417 L 158.408 304.617 L 161.308 304.617 L 161.308 306.517 L 158.408 306.517 L 158.408 310.817 L 161.708 310.817 L 161.708 312.517 L 156.408 312.517 L 156.408 298.517 Z" style="fill: rgb(255, 255, 255);"/>
      <path class="st0" d="M 163.008 298.517 L 165.008 298.517 L 167.008 304.417 L 169.008 298.517 L 171.008 298.517 L 171.008 312.517 L 169.108 312.517 L 169.108 303.017 L 167.008 309.217 L 166.908 309.217 L 164.808 303.017 L 164.808 312.517 L 163.008 312.517 L 163.008 298.517 Z" style="fill: rgb(255, 255, 255);"/>
      <path class="st0" d="M 172.608 298.517 L 174.608 298.517 C 177.208 298.517 179.008 300.017 179.008 303.117 L 179.008 303.117 C 179.008 306.117 177.308 307.717 174.808 307.817 L 174.608 307.817 L 174.608 312.517 L 172.608 312.517 L 172.608 298.517 Z M 174.908 306.117 C 176.208 306.117 177.108 305.117 177.108 303.317 L 177.108 303.317 C 177.108 301.417 176.308 300.417 174.908 300.417 L 174.608 300.417 L 174.608 306.117 L 174.908 306.117 Z" style="fill: rgb(255, 255, 255);"/>
      <path class="st0" d="M 180.208 298.517 L 182.208 298.517 L 182.208 310.617 L 185.108 310.617 L 185.108 312.517 L 180.308 312.517 L 180.308 298.517 Z" style="fill: rgb(255, 255, 255);"/>
      <path class="st0" d="M 185.308 305.817 L 185.308 305.217 C 185.308 300.517 186.808 298.317 188.908 298.317 C 191.008 298.317 192.508 300.517 192.508 305.217 L 192.508 305.817 C 192.508 310.517 191.008 312.717 188.908 312.717 C 186.808 312.717 185.308 310.617 185.308 305.817 Z M 190.508 305.817 L 190.508 305.217 C 190.508 301.617 189.808 300.117 188.908 300.117 C 188.008 300.117 187.308 301.617 187.308 305.217 L 187.308 305.817 C 187.308 309.417 188.008 310.917 188.908 310.917 C 189.908 310.917 190.508 309.517 190.508 305.817 Z" style="fill: rgb(255, 255, 255);"/>
      <path class="st0" d="M 195.408 306.917 L 192.708 298.517 L 194.808 298.517 L 196.408 304.317 L 198.108 298.517 L 200.108 298.517 L 197.408 306.917 L 197.408 312.517 L 195.408 312.517 L 195.408 306.917 Z" style="fill: rgb(255, 255, 255);"/>
      <path class="st0" d="M 201.008 298.517 L 206.208 298.517 L 206.208 300.417 L 203.008 300.417 L 203.008 304.617 L 205.908 304.617 L 205.908 306.517 L 203.008 306.517 L 203.008 310.817 L 206.308 310.817 L 206.308 312.517 L 201.108 312.517 L 201.108 298.517 Z M 204.308 294.517 L 205.808 295.317 L 203.608 297.717 L 202.508 297.717 L 204.308 294.517 Z" style="fill: rgb(255, 255, 255);"/>
      <path class="st0" d="M 207.508 305.517 L 212.208 305.517 L 212.208 307.417 L 207.508 307.417 L 207.508 305.517 Z" style="fill: rgb(255, 255, 255);"/>
      <path class="st0" d="M 213.908 298.517 L 219.108 298.517 L 219.108 300.417 L 215.908 300.417 L 215.908 304.617 L 218.808 304.617 L 218.808 306.517 L 215.908 306.517 L 215.908 310.817 L 219.208 310.817 L 219.208 312.517 L 214.008 312.517 L 214.008 298.517 Z" style="fill: rgb(255, 255, 255);"/>
      <path class="st0" d="M 220.108 305.517 L 224.808 305.517 L 224.808 307.417 L 220.108 307.417 L 220.108 305.517 Z" style="fill: rgb(255, 255, 255);"/>
      <path class="st0" d="M 226.108 312.017 L 226.108 309.917 C 227.008 310.417 227.708 310.717 228.408 310.717 C 229.208 310.717 229.908 310.217 229.908 309.317 L 229.908 309.317 C 229.908 308.517 229.608 307.917 228.408 306.417 C 226.708 304.317 226.108 303.517 226.108 301.917 L 226.108 301.917 C 226.108 299.817 227.508 298.517 229.308 298.517 C 230.208 298.517 230.808 298.717 231.508 299.017 L 231.508 301.117 C 230.608 300.517 230.108 300.317 229.408 300.317 C 228.608 300.317 228.008 300.817 228.008 301.717 L 228.008 301.717 C 228.008 302.517 228.308 302.917 229.508 304.417 C 231.408 306.617 231.808 307.517 231.808 309.117 L 231.808 309.117 C 231.808 311.217 230.308 312.517 228.508 312.517 C 227.708 312.717 226.908 312.417 226.108 312.017 Z" style="fill: rgb(255, 255, 255);"/>
      <path class="st0" d="M 236.208 298.517 L 238.308 298.517 C 241.308 298.517 243.108 300.817 243.108 305.317 L 243.108 305.717 C 243.108 310.217 241.308 312.517 238.308 312.517 L 236.208 312.517 L 236.208 298.517 Z M 238.508 310.717 C 239.908 310.717 241.108 309.417 241.108 305.717 L 241.108 305.317 C 241.108 301.717 239.908 300.317 238.508 300.317 L 238.208 300.317 L 238.208 310.717 L 238.508 310.717 Z" style="fill: rgb(255, 255, 255);"/>
      <path class="st0" d="M 244.508 298.517 L 249.708 298.517 L 249.708 300.417 L 246.508 300.417 L 246.508 304.617 L 249.408 304.617 L 249.408 306.517 L 246.508 306.517 L 246.508 310.817 L 249.808 310.817 L 249.808 312.517 L 244.608 312.517 L 244.608 298.517 Z" style="fill: rgb(255, 255, 255);"/>
      <path class="st0" d="M 254.308 298.517 L 256.308 298.517 L 256.308 310.617 L 259.208 310.617 L 259.208 312.517 L 254.408 312.517 L 254.408 298.517 Z" style="fill: rgb(255, 255, 255);"/>
      <path class="st0" d="M 262.208 298.517 L 264.308 298.517 L 267.108 312.517 L 265.108 312.517 L 264.508 309.417 L 261.908 309.417 L 261.308 312.517 L 259.408 312.517 L 262.208 298.517 Z M 264.208 307.617 L 263.208 302.017 L 262.208 307.617 L 264.208 307.617 Z" style="fill: rgb(255, 255, 255);"/>
    </g>
    <g id="usge_svg_general" transform="matrix(1, 0, 0, 1, 8, 0)">
      <path class="st0" d="M 310.101 312.017 L 310.101 309.917 C 311.001 310.517 311.701 310.817 312.401 310.817 C 313.201 310.817 313.901 310.317 313.901 309.417 L 313.901 309.417 C 313.901 308.617 313.601 308.017 312.401 306.517 C 310.601 304.317 310.001 303.417 310.001 301.917 L 310.001 301.917 C 310.001 299.817 311.401 298.517 313.201 298.517 C 314.101 298.517 314.701 298.717 315.401 299.017 L 315.401 301.117 C 314.601 300.517 314.101 300.317 313.401 300.317 C 312.601 300.317 312.001 300.817 312.001 301.717 L 312.001 301.717 C 312.001 302.517 312.201 303.017 313.501 304.517 C 315.401 306.717 315.801 307.617 315.801 309.217 L 315.801 309.217 C 315.801 311.317 314.301 312.617 312.501 312.617 C 311.701 312.717 310.901 312.417 310.101 312.017 Z" style="fill: rgb(255, 255, 255);"/>
      <path class="st0" d="M 317.001 298.517 L 322.201 298.517 L 322.201 300.417 L 319.001 300.417 L 319.001 304.617 L 321.901 304.617 L 321.901 306.517 L 319.001 306.517 L 319.001 310.817 L 322.301 310.817 L 322.301 312.517 L 317.001 312.517 L 317.001 298.517 Z M 320.301 294.517 L 321.801 295.317 L 319.701 297.717 L 318.601 297.717 L 320.301 294.517 Z" style="fill: rgb(255, 255, 255);"/>
      <path class="st0" d="M 323.301 305.817 L 323.301 305.417 C 323.301 300.617 325.101 298.517 327.301 298.517 C 328.001 298.517 328.301 298.617 328.801 298.817 L 328.801 300.817 C 328.301 300.517 327.901 300.317 327.401 300.317 C 326.201 300.317 325.201 301.617 325.201 305.217 L 325.201 305.717 C 325.201 309.517 326.101 310.617 327.401 310.617 C 327.801 310.617 328.301 310.517 328.801 310.217 L 328.801 312.117 C 328.301 312.417 327.801 312.517 327.101 312.517 C 325.001 312.617 323.301 310.617 323.301 305.817 Z" style="fill: rgb(255, 255, 255);"/>
      <path class="st0" d="M 330.201 308.617 L 330.201 298.517 L 332.201 298.517 L 332.201 308.717 C 332.201 310.217 332.801 310.817 333.601 310.817 C 334.401 310.817 335.001 310.117 335.001 308.717 L 335.001 298.517 L 336.901 298.517 L 336.901 308.617 C 336.901 311.417 335.501 312.717 333.601 312.717 C 331.601 312.717 330.201 311.417 330.201 308.617 Z" style="fill: rgb(255, 255, 255);"/>
      <path class="st0" d="M 338.501 298.517 L 340.801 298.517 C 343.301 298.517 345.001 299.917 345.001 302.917 L 345.001 303.017 C 345.001 304.917 344.201 306.117 343.101 306.717 L 345.201 312.517 L 343.101 312.517 L 341.201 307.417 C 341.101 307.417 341.001 307.417 340.901 307.417 L 340.401 307.417 L 340.401 312.517 L 338.401 312.517 L 338.401 298.517 Z M 340.801 305.717 C 342.101 305.717 343.001 304.917 343.001 303.117 L 343.001 302.917 C 343.001 301.017 342.001 300.317 340.701 300.317 L 340.401 300.317 L 340.401 305.617 L 340.801 305.617 Z" style="fill: rgb(255, 255, 255);"/>
      <path class="st0" d="M 346.501 298.517 L 348.501 298.517 L 348.501 312.517 L 346.501 312.517 L 346.501 298.517 Z" style="fill: rgb(255, 255, 255);"/>
      <path class="st0" d="M 351.501 300.417 L 349.601 300.417 L 349.601 298.517 L 355.301 298.517 L 355.301 300.417 L 353.401 300.417 L 353.401 312.517 L 351.401 312.517 L 351.401 300.417 Z" style="fill: rgb(255, 255, 255);"/>
      <path class="st0" d="M 356.501 298.517 L 361.701 298.517 L 361.701 300.417 L 358.501 300.417 L 358.501 304.617 L 361.401 304.617 L 361.401 306.517 L 358.501 306.517 L 358.501 310.817 L 361.801 310.817 L 361.801 312.517 L 356.601 312.517 L 356.601 298.517 Z M 359.801 294.517 L 361.301 295.317 L 359.101 297.717 L 358.001 297.717 L 359.801 294.517 Z" style="fill: rgb(255, 255, 255);"/>
      <path class="st0" d="M 366.301 298.517 L 371.501 298.517 L 371.501 300.417 L 368.301 300.417 L 368.301 304.617 L 371.201 304.617 L 371.201 306.517 L 368.301 306.517 L 368.301 310.817 L 371.601 310.817 L 371.601 312.517 L 366.401 312.517 L 366.401 298.517 Z" style="fill: rgb(255, 255, 255);"/>
      <path class="st0" d="M 374.201 300.417 L 372.301 300.417 L 372.301 298.517 L 378.001 298.517 L 378.001 300.417 L 376.101 300.417 L 376.101 312.517 L 374.101 312.517 L 374.101 300.417 Z" style="fill: rgb(255, 255, 255);"/>
    </g>
    <g id="usge_svg_employees" transform="matrix(1, 0, 0, 1, 12, 0)">
      <path class="st0" d="M 463.272 298.517 L 465.372 298.517 C 468.372 298.517 470.172 300.817 470.172 305.317 L 470.172 305.717 C 470.172 310.217 468.372 312.517 465.372 312.517 L 463.272 312.517 L 463.272 298.517 Z M 465.572 310.717 C 466.972 310.717 468.172 309.417 468.172 305.717 L 468.172 305.317 C 468.172 301.717 466.972 300.317 465.572 300.317 L 465.272 300.317 L 465.272 310.717 L 465.572 310.717 Z" style="fill: rgb(255, 255, 255);"/>
      <path class="st0" d="M 471.472 298.517 L 476.672 298.517 L 476.672 300.417 L 473.472 300.417 L 473.472 304.617 L 476.372 304.617 L 476.372 306.517 L 473.472 306.517 L 473.472 310.817 L 476.772 310.817 L 476.772 312.517 L 471.572 312.517 L 471.572 298.517 Z" style="fill: rgb(255, 255, 255);"/>
      <path class="st0" d="M 481.949 298.301 L 483.949 298.301 L 483.949 310.401 L 486.849 310.401 L 486.849 312.301 L 481.949 312.301 L 481.949 298.301 Z" style="fill: rgb(255, 255, 255);"/>
      <path class="st0" d="M 489.849 298.301 L 491.949 298.301 L 494.749 312.301 L 492.749 312.301 L 492.249 309.201 L 489.549 309.201 L 488.949 312.301 L 487.049 312.301 L 489.849 298.301 Z M 491.949 307.401 L 490.949 301.801 L 489.949 307.401 L 491.949 307.401 Z" style="fill: rgb(255, 255, 255);"/>
      <path class="st0" d="M 498.549 312.301 L 498.549 310.401 C 498.849 310.501 499.349 310.601 499.649 310.601 C 500.449 310.601 500.949 310.201 500.949 309.101 L 500.949 298.301 L 502.949 298.301 L 502.949 309.201 C 502.949 311.401 501.749 312.501 499.949 312.501 C 499.349 312.501 498.849 312.401 498.549 312.301 Z" style="fill: rgb(255, 255, 255);"/>
      <path class="st0" d="M 504.449 308.401 L 504.449 298.301 L 506.449 298.301 L 506.449 308.501 C 506.449 310.001 507.049 310.601 507.849 310.601 C 508.649 310.601 509.249 309.901 509.249 308.501 L 509.249 298.301 L 511.149 298.301 L 511.149 308.401 C 511.149 311.201 509.749 312.501 507.849 312.501 C 505.949 312.501 504.449 311.201 504.449 308.401 Z" style="fill: rgb(255, 255, 255);"/>
      <path class="st0" d="M 512.449 311.801 L 512.449 309.701 C 513.349 310.201 514.049 310.501 514.749 310.501 C 515.549 310.501 516.249 310.001 516.249 309.101 L 516.249 309.101 C 516.249 308.301 515.949 307.701 514.749 306.201 C 512.949 304.101 512.349 303.201 512.349 301.701 L 512.349 301.701 C 512.349 299.601 513.749 298.301 515.549 298.301 C 516.449 298.301 517.049 298.501 517.749 298.801 L 517.749 300.901 C 516.949 300.401 516.449 300.201 515.849 300.201 C 515.049 300.201 514.449 300.701 514.449 301.601 L 514.449 301.601 C 514.449 302.401 514.749 302.801 515.949 304.301 C 517.849 306.501 518.249 307.401 518.249 309.001 L 518.249 309.001 C 518.249 311.101 516.749 312.401 514.949 312.401 C 514.049 312.501 513.249 312.201 512.449 311.801 Z" style="fill: rgb(255, 255, 255);"/>
      <path class="st0" d="M 520.349 300.201 L 518.449 300.201 L 518.449 298.301 L 524.149 298.301 L 524.149 300.201 L 522.249 300.201 L 522.249 312.301 L 520.249 312.301 L 520.249 300.201 Z" style="fill: rgb(255, 255, 255);"/>
      <path class="st0" d="M 525.449 298.301 L 527.449 298.301 L 527.449 312.301 L 525.449 312.301 L 525.449 298.301 Z" style="fill: rgb(255, 255, 255);"/>
      <path class="st0" d="M 528.849 305.601 L 528.849 305.101 C 528.849 300.301 530.649 298.201 532.849 298.201 C 533.549 298.201 533.849 298.301 534.349 298.501 L 534.349 300.501 C 533.949 300.301 533.549 300.201 533.049 300.201 C 531.849 300.201 530.849 301.501 530.849 305.101 L 530.849 305.601 C 530.849 309.401 531.749 310.501 533.049 310.501 C 533.449 310.501 533.949 310.401 534.449 310.101 L 534.449 312.001 C 533.949 312.301 533.449 312.401 532.749 312.401 C 530.549 312.401 528.849 310.401 528.849 305.601 Z" style="fill: rgb(255, 255, 255);"/>
      <path class="st0" d="M 535.849 298.301 L 541.049 298.301 L 541.049 300.201 L 537.849 300.201 L 537.849 304.401 L 540.749 304.401 L 540.749 306.201 L 537.849 306.201 L 537.849 310.501 L 541.149 310.501 L 541.149 312.401 L 535.949 312.401 L 535.949 298.301 Z" style="fill: rgb(255, 255, 255);"/>
    </g>
  </g>
</svg>