<svg version="1.1" id="Layer_1" x="0px" y="0px" viewBox="0 0 877 24.6" width="100%" height="100%" xmlns="http://www.w3.org/2000/svg">
  <g>
    <path fill="#FFFFFF" d="M 248.9 14.3 L 248.9 0.4 L 250.7 0.4 L 250.7 14.1 C 250.7 19.7 253.7 22.9 258.8 22.9 C 263.6 22.9 266.7 20 266.7 14.2 L 266.7 0.4 L 268.5 0.4 L 268.5 14.1 C 268.5 20.9 264.5 24.6 258.7 24.6 C 252.9 24.6 248.9 21 248.9 14.3 Z"/>
    <path fill="#FFFFFF" d="M 283.7 20.7 L 284.9 19.4 C 287.5 21.8 289.9 22.9 293.4 22.9 C 297 22.9 299.4 20.9 299.4 18.2 L 299.4 18.1 C 299.4 15.6 298.1 14.1 292.7 13 C 287 11.8 284.7 9.9 284.7 6.3 L 284.7 6.3 C 284.7 2.8 287.9 0 292.3 0 C 295.8 0 298 1 300.5 2.9 L 299.4 4.3 C 297.2 2.4 294.9 1.6 292.3 1.6 C 288.8 1.6 286.5 3.6 286.5 6.1 L 286.5 6.2 C 286.5 8.7 287.8 10.2 293.4 11.4 C 298.9 12.5 301.2 14.5 301.2 18 L 301.2 18.1 C 301.2 21.9 297.9 24.6 293.3 24.6 C 289.5 24.5 286.6 23.3 283.7 20.7 Z"/>
    <path fill="#FFFFFF" d="M 344.1 0.4 L 361 0.4 L 361 2 L 345.8 2 L 345.8 11.3 L 359.4 11.3 L 359.4 13 L 345.8 13 L 345.8 22.6 L 361.1 22.6 L 361.1 24.2 L 344 24.2 L 344 0.4 Z"/>
    <path fill="#FFFFFF" d="M395.4,0.4h8.6c5.2,0,8.8,2.7,8.8,7.3v0.1c0,5-4.3,7.6-9.3,7.6h-6.4v8.9h-1.8V0.4z M403.7,13.7&#10;&#9;&#9;c4.4,0,7.4-2.3,7.4-5.8V7.8c0-3.8-2.9-5.7-7.2-5.7h-6.7v11.7H403.7z"/>
    <path fill="#FFFFFF" d="M422.8,0.4h10c2.9,0,5.3,0.9,6.7,2.3c1.1,1.1,1.8,2.7,1.8,4.4v0.1c0,4-3,6.3-7,6.8l7.9,10.2H440l-7.6-9.9&#10;&#9;&#9;h-7.8v9.9h-1.8V0.4z M432.6,12.7c4,0,6.9-2,6.9-5.4V7.2c0-3.2-2.5-5.2-6.8-5.2h-8.1v10.7H432.6z"/>
    <path fill="#FFFFFF" d="M457.6,0.4h16.9V2h-15.2v9.3H473V13h-13.6v9.6h15.3v1.6h-17.1V0.4z"/>
    <path fill="#FFFFFF" d="M489.1,20.7l1.2-1.3c2.6,2.4,5,3.5,8.5,3.5c3.6,0,6-2,6-4.7v-0.1c0-2.5-1.3-4-6.7-5.1c-5.7-1.2-8-3.1-8-6.7&#10;&#9;&#9;V6.3c0-3.5,3.2-6.3,7.6-6.3c3.5,0,5.7,1,8.2,2.9l-1.1,1.4c-2.2-1.9-4.5-2.7-7.1-2.7c-3.5,0-5.8,2-5.8,4.5v0.1c0,2.5,1.3,4,6.9,5.2&#10;&#9;&#9;c5.5,1.1,7.8,3.1,7.8,6.6v0.1c0,3.8-3.3,6.5-7.9,6.5C494.9,24.5,491.9,23.3,489.1,20.7z"/>
    <path fill="#FFFFFF" d="M522.6,0.4h16.9V2h-15.2v9.3H538V13h-13.6v9.6h15.3v1.6h-17.1V0.4z"/>
    <path fill="#FFFFFF" d="M555.5,0.4h1.7l16.4,20.7V0.4h1.7v23.8H574L557.2,3.1v21.1h-1.7V0.4z"/>
    <path fill="#FFFFFF" d="M594.3,2H586V0.4h18.4V2h-8.3v22.2h-1.8V2z"/>
    <path fill="#FFFFFF" d="M613.5,20.7l1.2-1.3c2.6,2.4,5,3.5,8.5,3.5c3.6,0,6-2,6-4.7v-0.1c0-2.5-1.3-4-6.7-5.1c-5.7-1.2-8-3.1-8-6.7&#10;&#9;&#9;V6.3c0-3.5,3.2-6.3,7.6-6.3c3.5,0,5.7,1,8.2,2.9l-1.1,1.4c-2.2-1.9-4.5-2.7-7.1-2.7c-3.5,0-5.8,2-5.8,4.5v0.1c0,2.5,1.3,4,6.9,5.2&#10;&#9;&#9;c5.5,1.1,7.8,3.1,7.8,6.6v0.1c0,3.8-3.3,6.5-7.9,6.5C619.3,24.5,616.4,23.3,613.5,20.7z"/>
    <g transform="matrix(1.392532, 0, 0, 1.392532, 313.681671, 0.377781)">
      <path class="st0" d="M0,14l1-0.7c1,1.8,2.2,2.7,4.2,2.7c2.1,0,3.7-1.6,3.7-4.5V0h1.3v11.4c0,2-0.6,3.5-1.5,4.4&#10;&#9;&#9;c-0.9,0.9-2.1,1.4-3.5,1.4C2.6,17.2,1,15.9,0,14z" style="fill: rgb(255, 255, 255);"/>
    </g>
  </g>
  <line fill="none" stroke="#FFFFFF" stroke-miterlimit="10" x1="0" y1="12.9" x2="213" y2="12.9"/>
  <line fill="none" stroke="#FFFFFF" stroke-miterlimit="10" x1="664" y1="12.9" x2="877" y2="12.9"/>
</svg>