<?xml version="1.0" encoding="utf-8"?>
<!-- Generator: Adobe Illustrator 18.1.1, SVG Export Plug-In . SVG Version: 6.00 Build 0)  -->
<svg version="1.1" id="Layer_1" xmlns="http://www.w3.org/2000/svg" xmlns:xlink="http://www.w3.org/1999/xlink" x="0px" y="0px"
	 viewBox="0 0 877 33" enable-background="new 0 0 877 33" xml:space="preserve">
<g>
	<path fill="#FFFFFF" d="M174.6,19.2V0.5h2.4V19c0,7.5,4.1,11.9,10.8,11.9c6.5,0,10.6-3.9,10.6-11.6V0.5h2.4v18.4
		c0,9.2-5.3,14.1-13.1,14.1C180,33,174.6,28.2,174.6,19.2z"/>
	<path fill="#FFFFFF" d="M221.4,27.8l1.6-1.8c3.5,3.2,6.8,4.7,11.5,4.7c4.8,0,8.1-2.7,8.1-6.3v-0.1c0-3.4-1.8-5.3-9-6.8
		c-7.7-1.6-10.8-4.2-10.8-9V8.5c0-4.7,4.3-8.4,10.3-8.4c4.7,0,7.7,1.3,11,3.9l-1.5,1.9c-3-2.6-6-3.6-9.5-3.6c-4.7,0-7.8,2.7-7.8,6
		v0.1c0,3.4,1.7,5.4,9.3,7c7.4,1.5,10.5,4.2,10.5,8.8v0.1c0,5.2-4.4,8.7-10.6,8.7C229.2,32.9,225.2,31.3,221.4,27.8z"/>
	<path fill="#FFFFFF" d="M264.9,16.6L264.9,16.6c0-8.7,6.3-16.6,15.8-16.6c5.2,0,8.5,1.6,11.7,4.2L290.9,6
		c-2.5-2.2-5.4-3.8-10.3-3.8c-7.8,0-13.2,6.6-13.2,14.3v0.1c0,8.3,5.2,14.4,13.7,14.4c4.1,0,7.8-1.7,10.2-3.7v-9.2h-10.7v-2.2h13
		v12.3c-2.9,2.6-7.3,4.8-12.5,4.8C270.9,33,264.9,25.6,264.9,16.6z"/>
	<path fill="#FFFFFF" d="M315.8,0.5h22.7v2.2h-20.3v12.5h18.3v2.2h-18.3v12.8h20.6v2.2h-23V0.5z"/>
	<path fill="#FFFFFF" d="M380.6,0.5h11.6c7,0,11.9,3.6,11.9,9.8v0.1c0,6.7-5.8,10.2-12.5,10.2H383v11.9h-2.4V0.5z M391.8,18.4
		c5.9,0,9.9-3.1,9.9-7.8v-0.1c0-5.1-3.9-7.7-9.7-7.7h-9v15.6H391.8z"/>
	<path fill="#FFFFFF" d="M417.5,0.5h13.4c3.9,0,7.1,1.2,9,3.1c1.5,1.5,2.4,3.7,2.4,5.9v0.1c0,5.3-4,8.4-9.4,9.1l10.5,13.6h-3
		l-10.2-13.2h-10.4v13.2h-2.4V0.5z M430.6,17.1c5.3,0,9.3-2.7,9.3-7.3V9.7c0-4.3-3.4-7-9.2-7h-10.9v14.4H430.6z"/>
	<path fill="#FFFFFF" d="M464.2,0.5h22.7v2.2h-20.3v12.5h18.3v2.2h-18.3v12.8h20.6v2.2h-22.9V0.5z"/>
	<path fill="#FFFFFF" d="M506.4,27.8l1.6-1.8c3.5,3.2,6.8,4.7,11.5,4.7c4.8,0,8.1-2.7,8.1-6.3v-0.1c0-3.4-1.8-5.3-9-6.8
		c-7.7-1.6-10.8-4.2-10.8-9V8.5c0-4.7,4.3-8.4,10.3-8.4c4.7,0,7.7,1.3,10.9,3.9l-1.5,1.9c-3-2.6-6-3.6-9.5-3.6c-4.7,0-7.8,2.7-7.8,6
		v0.1c0,3.4,1.7,5.4,9.3,7c7.4,1.5,10.5,4.2,10.5,8.8v0.1c0,5.2-4.4,8.7-10.6,8.7C514.1,32.9,510.2,31.3,506.4,27.8z"/>
	<path fill="#FFFFFF" d="M551.3,0.5H574v2.2h-20.3v12.5H572v2.2h-18.3v12.8h20.6v2.2h-22.9V0.5z"/>
	<path fill="#FFFFFF" d="M595.6,0.5h2.2l22,27.8V0.5h2.3v31.9h-1.8L597.9,4.1v28.4h-2.3V0.5z"/>
	<path fill="#FFFFFF" d="M647.6,2.7h-11.1V0.5h24.6v2.2H650v29.7h-2.4V2.7z"/>
	<path fill="#FFFFFF" d="M673.4,27.8l1.6-1.8c3.5,3.2,6.8,4.7,11.5,4.7c4.8,0,8.1-2.7,8.1-6.3v-0.1c0-3.4-1.8-5.3-9-6.8
		c-7.7-1.6-10.8-4.2-10.8-9V8.5c0-4.7,4.3-8.4,10.3-8.4c4.7,0,7.7,1.3,11,3.9l-1.5,1.9c-3-2.6-6-3.6-9.5-3.6c-4.7,0-7.8,2.7-7.8,6
		v0.1c0,3.4,1.7,5.4,9.3,7c7.4,1.5,10.5,4.2,10.5,8.8v0.1c0,5.2-4.4,8.7-10.6,8.7C681.2,32.9,677.3,31.3,673.4,27.8z"/>
</g>
<line fill="none" stroke="#FFFFFF" stroke-miterlimit="10" x1="0" y1="17.1" x2="136" y2="17.1"/>
<line fill="none" stroke="#FFFFFF" stroke-miterlimit="10" x1="741" y1="17.1" x2="877" y2="17.1"/>
</svg>
